<?xml version="1.0" encoding="utf-8"?>
<svg xmlns="http://www.w3.org/2000/svg" width="250" height="75" viewBox="0 0 250 75" fill="none">
<path fill-rule="evenodd" clip-rule="evenodd" d="M86.345 55.973L65.1725 19.3008L44 55.973H86.345ZM206 22.1658V48.5239H200.843V22.1658H206ZM124.816 28.4689C118.49 28.4689 113.929 32.5945 113.929 38.783C113.929 44.9714 119.063 49.097 125.389 49.097C129.211 49.097 132.58 47.5843 134.666 45.0344L130.282 42.5017C129.125 43.7681 127.366 44.5073 125.389 44.5073C122.644 44.5073 120.312 43.0748 119.447 40.7827H135.503C135.629 40.141 135.703 39.4763 135.703 38.7772C135.703 32.5945 131.142 28.4689 124.816 28.4689ZM119.396 36.7774C120.112 34.4912 122.072 33.0529 124.811 33.0529C127.555 33.0529 129.515 34.4912 130.225 36.7774H119.396ZM175.631 38.783C175.631 32.5945 180.192 28.4689 186.518 28.4689C192.844 28.4689 197.405 32.5945 197.405 38.7772C197.405 39.4763 197.33 40.141 197.204 40.7827H181.149C182.014 43.0748 184.346 44.5073 187.091 44.5073C189.067 44.5073 190.827 43.7681 191.984 42.5017L196.368 45.0344C194.282 47.5843 190.913 49.097 187.091 49.097C180.765 49.097 175.631 44.9714 175.631 38.783ZM181.102 36.7774C181.818 34.4912 183.778 33.0529 186.517 33.0529C189.262 33.0529 191.221 34.4912 191.932 36.7774H181.102ZM164.468 44.513C160.984 44.513 158.738 42.221 158.738 38.783C158.738 35.3449 160.99 33.0529 164.468 33.0529C166.829 33.0529 168.599 34.1244 169.51 35.8721L173.911 33.3337C172.083 30.2968 168.674 28.4689 164.468 28.4689C158.142 28.4689 153.581 32.5945 153.581 38.783C153.581 44.9714 158.136 49.097 164.468 49.097C168.674 49.097 172.089 47.2691 173.911 44.2322L169.51 41.6938C168.599 43.4415 166.829 44.513 164.468 44.513ZM118.107 22.1658L102.229 49.67L86.351 22.1658H92.3045L102.229 39.3559L112.153 22.1658H118.107ZM151.862 34.5943V29.0419C147.684 29.0419 144.298 31.4027 144.298 34.3135V29.0419H139.141V48.524H144.298V40.0436C144.298 36.6055 146.699 34.3135 150.028 34.3135C150.681 34.3135 151.289 34.4281 151.862 34.5943Z" fill="white"/>
</svg>