<?xml version="1.0" encoding="utf-8"?>
<svg xmlns="http://www.w3.org/2000/svg" width="250" height="75" viewBox="0 0 250 75" fill="none">
<path d="M216.599 30.1527L209.616 37.0037L216.599 43.8547L223.581 37.0037L216.599 30.1527ZM43.3566 36.8662C45.2301 35.2222 45.8722 32.6187 44.9744 30.3178C44.5349 29.1932 43.7587 28.2276 42.7487 27.5462C41.7387 26.8648 40.5386 26.5011 39.3135 26.5042H26.8818V47.4971H39.6439C40.9064 47.4971 42.1377 47.1121 43.1664 46.394C44.1951 45.6728 44.9682 44.6583 45.3766 43.4849C46.2151 41.0831 45.4046 38.4216 43.3597 36.8662H43.3566ZM29.7217 29.2941H39.3166C40.1707 29.2941 40.9875 29.6272 41.5922 30.22C42.8485 31.4545 42.8485 33.4529 41.5922 34.6844C40.9875 35.2772 40.1707 35.6103 39.3166 35.6103H29.7217V29.2941ZM39.6408 44.7195H29.7217V38.3941H39.6408C40.4949 38.3941 41.3148 38.7272 41.9195 39.32C43.1789 40.5545 43.1789 42.5529 41.9195 43.7875C41.3148 44.3803 40.4949 44.7133 39.6408 44.7133V44.7195ZM152.118 36.8631C154.612 34.6752 154.824 30.9197 152.592 28.4751C152.271 28.1237 151.906 27.809 151.51 27.5431C150.5 26.8617 149.3 26.4981 148.075 26.5011H135.64V47.4971H148.402C149.665 47.4971 150.896 47.1121 151.925 46.3909C154.649 44.4811 155.276 40.7653 153.328 38.0946C152.988 37.6271 152.579 37.2115 152.118 36.8601V36.8631ZM138.483 29.2941H148.078C148.932 29.2941 149.752 29.6272 150.354 30.22C151.613 31.4545 151.613 33.4529 150.354 34.6875C149.749 35.2803 148.932 35.6134 148.078 35.6134H138.483V29.291V29.2941ZM148.405 44.7195H138.483V38.3971H148.405C149.259 38.3971 150.079 38.7302 150.681 39.323C151.94 40.5575 151.94 42.559 150.681 43.7905C150.076 44.3833 149.259 44.7164 148.405 44.7164V44.7195ZM51.9197 26.5011H54.7595V47.4971H51.9197V26.5011ZM170.825 26C168.608 26 166.442 26.6478 164.596 27.8548C162.754 29.0649 161.317 30.7822 160.469 32.7929C158.736 36.9029 159.696 41.6301 162.901 44.7775C166.105 47.9219 170.928 48.863 175.117 47.161C177.165 46.3268 178.917 44.9181 180.148 43.1091C181.38 41.3001 182.038 39.1733 182.038 36.9976C182.038 34.0824 180.853 31.2864 178.749 29.2238C176.651 27.1612 173.799 26 170.825 26ZM170.825 45.2145C169.169 45.2145 167.552 44.7317 166.177 43.8302C164.799 42.9257 163.73 41.6454 163.094 40.145C161.8 37.0771 162.517 33.5446 164.911 31.1978C167.305 28.851 170.906 28.1482 174.032 29.4194C175.563 30.0427 176.869 31.0939 177.789 32.4446C178.708 33.7952 179.198 35.3842 179.198 37.0068C179.198 39.1855 178.312 41.2726 176.741 42.8127C175.173 44.3528 173.044 45.2175 170.825 45.2206V45.2145ZM85.9696 36.9976C85.9696 38.7516 86.5401 40.4628 87.6031 41.8746C88.6629 43.2863 90.1592 44.3283 91.8675 44.8478C93.5757 45.3673 95.4087 45.3337 97.0983 44.7561C98.7878 44.1786 100.244 43.0846 101.25 41.6362L102.052 40.4873L104.396 42.064L103.595 43.213C102.242 45.1503 100.293 46.614 98.0303 47.3871C95.7703 48.1602 93.3139 48.203 91.0289 47.5093C88.7409 46.8157 86.7396 45.4192 85.3181 43.5308C83.8966 41.6393 83.1298 39.3536 83.1298 37.0037C83.1298 34.6539 83.8966 32.3682 85.3181 30.4767C86.7396 28.5852 88.7409 27.1917 91.0289 26.4981C93.317 25.8044 95.7703 25.8472 98.0303 26.6203C100.29 27.3934 102.242 28.8571 103.595 30.7945L104.396 31.9434L102.052 33.5202L101.25 32.3712C100.24 30.9228 98.7878 29.8288 97.0983 29.2483C93.6319 28.0596 89.7789 29.2299 87.6031 32.1298C86.5401 33.5416 85.9696 35.2528 85.9696 37.0068V36.9976ZM125.796 26.5011H128.636V47.4971H125.796V38.7944H112.797V47.4971H109.957V26.5011H112.797V36.0045H125.793V26.5011H125.796ZM72.9831 38.3971C74.5916 38.3971 76.1315 37.7707 77.2693 36.6554C79.6384 34.333 79.6384 30.5653 77.2693 28.2429C76.1315 27.1276 74.5916 26.5011 72.9831 26.5011H61.6612V47.4971H64.501V38.3941H68.1014L75.4987 47.4971H79.1334L71.7362 38.3941H72.9831V38.3971ZM64.501 35.6072V29.288H72.9862C73.8403 29.288 74.6602 29.6211 75.2618 30.2139C76.5181 31.4484 76.5181 33.4468 75.2618 34.6814C74.6571 35.2711 73.8403 35.6042 72.9893 35.6042H64.5041L64.501 35.6072ZM196.567 36.7104L205.573 47.5002H201.898L194.728 38.9227L187.568 47.5002H183.892L192.895 36.7104L184.388 26.5011H188.063L194.737 34.5072L201.414 26.5011H205.09L196.573 36.7073L196.567 36.7104Z" fill="white"/>
</svg>