<?xml version="1.0" encoding="utf-8"?>
<svg xmlns="http://www.w3.org/2000/svg" width="250" height="75" viewBox="0 0 250 75" fill="none">
<path d="M65.6495 52.032L65.3326 54.7662C65.3262 54.819 65.3092 54.8699 65.2826 54.916C65.2561 54.962 65.2205 55.0023 65.178 55.0343C65.1355 55.0662 65.087 55.0893 65.0354 55.1021C64.9838 55.1149 64.9301 55.1171 64.8776 55.1086C60.4197 54.4313 57.0312 51.2345 55.0615 45.8366C54.6582 44.7204 54.3286 43.579 54.075 42.4196C54.0181 42.1646 53.9109 41.9235 53.7596 41.7104C53.6082 41.4974 53.4159 41.3167 53.1938 41.179C52.9717 41.0413 52.7243 40.9494 52.4662 40.9086C52.2081 40.8678 51.9444 40.879 51.6907 40.9415C51.3942 41.0127 51.0945 41.0769 50.7917 41.134C50.0221 41.2788 48.7504 41.5614 47.5782 41.7992C47.2383 41.8676 46.9226 42.0249 46.6635 42.2551C46.4043 42.4853 46.2109 42.7802 46.103 43.1097C45.7506 44.1942 45.4086 45.2787 45.077 46.3632L45.0195 46.5519C44.9604 46.7457 44.9009 46.9411 44.841 47.1381C44.7924 47.2999 44.6929 47.4417 44.5574 47.5426C44.4219 47.6434 44.2575 47.698 44.0886 47.6982H41.7198C41.6591 47.6983 41.5991 47.6842 41.5447 47.6572C41.4903 47.6301 41.4429 47.5908 41.4063 47.5423C41.3697 47.4939 41.3448 47.4376 41.3336 47.3779C41.3224 47.3181 41.3252 47.2567 41.3418 47.1982C41.5023 46.6407 41.6676 46.0987 41.8269 45.577L41.8842 45.389C43.6763 39.5149 45.8067 33.6523 47.867 27.9829C48.0464 27.4892 48.227 26.9923 48.4086 26.492C48.4336 26.4227 48.4774 26.3617 48.535 26.3159C48.5927 26.2701 48.662 26.2413 48.7352 26.2327C49.6655 26.1268 50.604 26.1128 51.537 26.1906C51.5976 26.1956 51.6561 26.2144 51.7082 26.2456C51.7603 26.2769 51.8044 26.3196 51.8373 26.3707C51.8702 26.4217 51.8909 26.4797 51.8977 26.54C51.9046 26.6003 51.8975 26.6614 51.877 26.7186C51.5846 27.5261 51.2929 28.3295 51.0044 29.1232C50.0287 31.8081 49.0381 34.5372 48.0762 37.2853C48.0479 37.3672 48.0414 37.4551 48.0576 37.5402C48.0737 37.6253 48.1118 37.7047 48.1681 37.7706C48.2244 37.8364 48.2969 37.8864 48.3785 37.9156C48.46 37.9448 48.5478 37.9521 48.6331 37.9369C49.151 37.8445 49.6527 37.7525 50.138 37.6606C55.6796 36.6178 59.7665 32.5784 59.0632 28.8398C58.737 27.1067 57.4349 25.6246 55.3967 24.6669C53.1642 23.618 50.3754 23.3342 47.5424 23.8669C44.71 24.4 42.2146 25.6784 40.5164 27.4672C39.0713 28.9889 38.3873 30.7025 38.5648 32.3316C38.5753 32.4293 38.5486 32.5274 38.49 32.6062C38.4313 32.685 38.3451 32.7388 38.2484 32.7568L35.5407 33.2664C35.4881 33.2762 35.4341 33.2751 35.382 33.2634C35.3298 33.2517 35.2806 33.2295 35.2372 33.1982C35.1939 33.1668 35.1574 33.127 35.1299 33.0812C35.1025 33.0353 35.0846 32.9843 35.0774 32.9314C34.6998 30.1836 35.7114 27.3942 37.9531 25.0332C40.1588 22.7104 43.3322 21.0624 46.8888 20.3932C50.445 19.7237 54.0005 20.1053 56.8999 21.4679C59.993 22.9212 61.995 25.3073 62.5367 28.1862C63.0784 31.0652 62.0807 34.0156 59.7275 36.4941C59.3306 36.9109 58.9079 37.3023 58.4618 37.6659C58.0208 38.0209 57.6834 38.488 57.4849 39.0181C57.2864 39.5483 57.234 40.1221 57.3334 40.6795C58.0246 44.4532 59.972 50.7177 65.3283 51.6012C65.4268 51.6182 65.5151 51.6723 65.5749 51.7525C65.6347 51.8327 65.6614 51.9327 65.6495 52.032V52.032ZM106.739 43.334C105.747 45.1765 103.646 48.2908 100.793 48.2908C99.8823 48.2908 98.8959 47.9741 97.8424 47.1974C97.5684 46.9596 97.3438 46.6704 97.1813 46.346C97.151 46.287 97.106 46.2366 97.0507 46.1998C96.9955 46.1629 96.9317 46.1409 96.8655 46.1356C96.7993 46.1304 96.7328 46.1421 96.6724 46.1698C96.612 46.1975 96.5597 46.2401 96.5204 46.2937C96.3826 46.468 96.2239 46.6247 96.048 46.7605C95.9871 46.8096 95.9309 46.8623 95.8727 46.9131C95.7726 47.0002 95.6706 47.084 95.5665 47.1653C95.5152 47.2054 95.4639 47.2451 95.4117 47.2837C95.369 47.3151 95.3285 47.3499 95.2853 47.3802C94.5188 47.9498 93.5946 48.2678 92.64 48.2907C91.9577 48.2834 91.2865 48.1174 90.6794 47.8059C89.9478 47.442 89.3371 46.8742 88.921 46.171C88.8911 46.1209 88.8504 46.0781 88.8018 46.0458C88.7532 46.0135 88.698 45.9925 88.6402 45.9844C88.5825 45.9763 88.5236 45.9812 88.468 45.9988C88.4124 46.0164 88.3615 46.0463 88.3189 46.0862C88.1976 46.199 88.0731 46.3095 87.9455 46.4178C87.1004 47.1427 86.1154 47.6864 85.0516 48.0151C84.46 48.1917 83.8449 48.277 83.2276 48.2683C81.901 48.2485 80.6292 47.7363 79.6592 46.8312C79.2069 46.4048 78.8218 45.9123 78.517 45.3705C78.3784 45.1257 78.2545 44.873 78.1458 44.6135C78.1211 44.5563 78.083 44.5059 78.0347 44.4664C77.9865 44.4269 77.9295 44.3995 77.8685 44.3866C77.8076 44.3736 77.7444 44.3754 77.6843 44.3919C77.6241 44.4083 77.5688 44.4389 77.5229 44.4811C77.0469 44.9151 76.277 45.6012 75.784 45.9591C73.3315 47.7855 70.2775 48.6134 67.2384 48.2756C64.2553 47.9749 62.0855 45.8299 61.7484 42.8564C61.2754 38.6851 62.4635 35.0095 65.2309 31.8741C66.6791 30.2333 68.5088 29.3388 70.7759 29.4639C72.8358 29.5776 74.7861 31.1583 75.3681 33.1492C76.3065 36.36 74.8309 38.8672 71.9378 40.4945C70.1127 41.521 68.1335 42.1215 66.1007 42.5652C65.6158 42.6711 65.5393 42.7901 65.7716 43.2191C66.0186 43.7126 66.3992 44.1268 66.87 44.4146C67.3409 44.7023 67.8831 44.8521 68.4349 44.8467C71.2958 44.9217 73.5737 43.69 75.3147 41.5174C77.2754 39.0703 78.1727 36.0407 79.9575 33.5747C80.5571 32.7342 81.2682 31.979 82.0712 31.33C82.9319 30.6264 83.9273 30.1061 84.9963 29.8011C85.5848 29.638 86.1946 29.565 86.8049 29.5844C88.1024 29.6271 89.3386 30.1469 90.2768 31.0442C90.5285 31.2852 90.7572 31.549 90.9602 31.8322C91.1577 31.2933 91.3585 30.7598 91.5658 30.2393C91.5851 30.1912 91.6137 30.1475 91.65 30.1105C91.6863 30.0736 91.7296 30.0442 91.7773 30.024C91.825 30.0039 91.8762 29.9933 91.928 29.993C91.9798 29.9927 92.0311 30.0026 92.079 30.0222L94.444 30.9827C94.54 31.0215 94.6166 31.0967 94.6572 31.192C94.6978 31.2872 94.6989 31.3946 94.6604 31.4907C94.0328 33.0686 93.4497 34.7443 92.9257 36.4782C92.8473 36.7373 92.7629 37.0088 92.6755 37.2901C92.478 37.9255 92.2599 38.63 92.0648 39.3543C92.0057 39.6259 91.9379 39.8949 91.8616 40.1612C91.5084 41.6723 91.326 43.1948 91.7133 44.307C91.7912 44.5248 91.9488 44.705 92.1544 44.8111C92.3937 44.9289 92.8905 45.1741 93.8652 44.2508C94.6006 43.4959 95.2132 42.6304 95.6806 41.6858C96.5212 39.9587 96.9934 37.9937 97.5946 36.2402C98.0888 34.7989 98.5829 33.3575 99.0769 31.916C99.933 29.4186 100.832 26.9422 101.714 24.5159C102.298 22.9075 102.901 21.248 103.481 19.6089C103.499 19.5604 103.525 19.5157 103.56 19.4775C103.594 19.4392 103.636 19.4081 103.682 19.3859C103.729 19.3637 103.779 19.3509 103.83 19.3482C103.882 19.3455 103.933 19.3529 103.982 19.3701L106.389 20.2188C106.438 20.2359 106.483 20.2625 106.521 20.2969C106.56 20.3314 106.591 20.3731 106.613 20.4196C106.635 20.4662 106.648 20.5167 106.651 20.5682C106.654 20.6197 106.646 20.6713 106.629 20.72C106.044 22.3726 105.438 24.0401 104.851 25.656C103.393 29.669 101.885 33.8185 100.627 37.9406L100.586 38.0748C99.9535 40.1474 99.2361 42.4966 99.8662 44.3068C99.9441 44.5247 100.102 44.7048 100.307 44.811C101.611 45.4541 103.186 42.8765 103.775 41.797C103.824 41.7076 103.906 41.6408 104.003 41.6109C104.101 41.5809 104.206 41.5902 104.297 41.6367L106.573 42.7958C106.619 42.8197 106.661 42.8527 106.695 42.8929C106.729 42.933 106.754 42.9796 106.769 43.0297C106.785 43.0799 106.79 43.1327 106.785 43.1849C106.78 43.2372 106.764 43.2878 106.739 43.3339V43.334ZM65.7937 39.0459L65.7959 39.0453C67.4278 38.6375 69.0617 38.2297 70.5336 37.3748C71.3062 36.9259 71.9063 36.3312 72.0842 35.4031C72.3653 33.9375 71.3101 32.7344 69.8992 33.0118C69.3118 33.1329 68.7574 33.3794 68.2741 33.7346C67.0938 34.6108 66.4455 35.8825 65.9647 37.2365C65.7909 37.7255 65.6659 38.2318 65.5192 38.7681C65.5088 38.8063 65.5086 38.8465 65.5187 38.8847C65.5287 38.923 65.5486 38.9579 65.5764 38.9861C65.6042 39.0142 65.6389 39.0345 65.6771 39.045C65.7152 39.0555 65.7554 39.0558 65.7937 39.0459V39.0459ZM88.9835 35.9646C88.921 35.3285 88.7295 34.7117 88.4206 34.1521C88.2911 33.9245 88.1276 33.7181 87.9359 33.5398C87.6033 33.229 87.1634 33.0588 86.7082 33.0648C86.4509 33.0673 86.1954 33.1082 85.9501 33.1862C85.355 33.384 84.8055 33.6989 84.334 34.1124C83.2578 35.0658 82.4266 36.2638 81.9104 37.6057C81.3553 38.9246 81.1284 40.3584 81.249 41.7843C81.2981 42.397 81.4705 42.9936 81.7557 43.5381C81.8729 43.7547 82.022 43.9525 82.1979 44.1249C82.3489 44.271 82.5232 44.3911 82.7135 44.4801C82.9089 44.5628 83.1171 44.6111 83.3289 44.6229C83.5794 44.6323 83.8298 44.6036 84.0717 44.5378C84.6736 44.3674 85.2343 44.0755 85.719 43.68C86.8388 42.754 87.7139 41.567 88.2672 40.2234C88.5586 39.5415 88.7727 38.8292 88.9053 38.0996C89.0341 37.3954 89.0604 36.6763 88.9835 35.9646V35.9646ZM215.952 43.6266C214.96 45.4692 212.859 48.5831 210.006 48.5834C209.324 48.576 208.653 48.41 208.046 48.0986C207.314 47.7346 206.703 47.1669 206.287 46.4638C206.257 46.4137 206.217 46.3709 206.168 46.3386C206.119 46.3063 206.064 46.2853 206.006 46.2772C205.949 46.269 205.89 46.274 205.834 46.2916C205.778 46.3092 205.727 46.3391 205.685 46.3791C205.564 46.4918 205.439 46.6023 205.312 46.7105C204.466 47.4354 203.481 47.9791 202.418 48.3078C201.826 48.4844 201.211 48.5698 200.594 48.5609C199.267 48.5411 197.995 48.0289 197.025 47.1238C196.651 46.7254 196.315 46.2929 196.021 45.8318C195.988 45.7819 195.943 45.7405 195.89 45.711C195.838 45.6814 195.779 45.6645 195.719 45.6616C195.659 45.6587 195.599 45.6698 195.544 45.6941C195.489 45.7185 195.44 45.7553 195.402 45.8017C194.308 47.1001 192.864 48.2263 191.149 48.2264C190.466 48.219 189.795 48.0531 189.188 47.7416C188.456 47.3776 187.846 46.8099 187.43 46.1068C187.4 46.0567 187.359 46.0139 187.31 45.9816C187.262 45.9493 187.207 45.9283 187.149 45.9201C187.091 45.912 187.032 45.9169 186.977 45.9345C186.921 45.9521 186.87 45.982 186.827 46.0219C186.706 46.1345 186.582 46.245 186.454 46.3533C185.609 47.0783 184.624 47.6221 183.56 47.9508C182.969 48.1274 182.353 48.2127 181.736 48.2038C180.41 48.184 179.138 47.6719 178.168 46.7669C177.715 46.3404 177.33 45.8479 177.026 45.3061C176.886 45.0594 176.761 44.8046 176.652 44.5431C176.627 44.4865 176.59 44.4365 176.542 44.3974C176.494 44.3584 176.437 44.3313 176.377 44.3185C176.317 44.3057 176.254 44.3076 176.195 44.3239C176.135 44.3402 176.08 44.3706 176.035 44.4124C175.559 44.8467 174.787 45.5359 174.293 45.8947C173.879 46.1954 173.449 46.4722 173.004 46.7238C171.349 47.6386 169.508 48.168 167.619 48.2726C165.606 48.394 164.023 47.7547 162.545 46.4184C162.019 45.9456 161.522 45.442 161.055 44.9101C161.019 44.8688 160.975 44.8355 160.925 44.8124C160.875 44.7893 160.821 44.7768 160.767 44.7759C160.712 44.7749 160.657 44.7855 160.607 44.8069C160.556 44.8283 160.511 44.86 160.473 44.9C156.715 48.9103 155.002 48.3471 154.377 48.1417C153.511 47.8571 152.465 47.013 152.395 44.6069C152.303 41.4248 153.588 37.9443 154.745 35.4847C154.774 35.4235 154.787 35.3557 154.782 35.2882C154.777 35.2206 154.754 35.1554 154.717 35.0991C154.679 35.0428 154.627 34.9973 154.567 34.9669C154.506 34.9366 154.438 34.9225 154.371 34.926C154.098 34.9397 153.82 34.9514 153.538 34.9606C152.858 34.9826 152.18 34.9934 151.529 34.9771C151.443 34.9746 151.358 35.0006 151.288 35.0511C151.218 35.1016 151.167 35.1738 151.142 35.2565C151.092 35.4245 151.043 35.5854 150.994 35.7391C150.967 35.8257 150.937 35.9115 150.908 35.9975C150.141 38.296 149.192 40.5295 148.068 42.6765C146.705 45.2565 144.563 49.0211 141.083 48.3297C136.737 47.4661 137.218 42.3116 138.379 39.2072C138.735 38.2752 139.003 37.3124 139.18 36.3309C139.342 35.4005 139.47 34.2001 138.862 33.417C138.683 33.1754 138.419 33.0103 138.124 32.9545C137.293 32.8238 136.269 33.6328 135.733 34.054C135.548 34.1964 135.373 34.3514 135.209 34.5177C133.496 36.2865 132.425 38.5633 131.589 40.8474L129.351 47.3215C129.298 47.4759 129.198 47.6099 129.065 47.7047C128.932 47.7995 128.772 47.8504 128.609 47.8504H126.213C126.152 47.8503 126.092 47.836 126.037 47.8085C125.983 47.7811 125.935 47.7413 125.899 47.6923C125.862 47.6434 125.837 47.5865 125.827 47.5264C125.816 47.4662 125.819 47.4044 125.837 47.3458C125.972 46.8843 126.109 46.4342 126.242 45.9981L126.299 45.812C128.091 39.9374 130.222 34.0744 132.282 28.4046C132.78 27.0356 133.286 25.6402 133.79 24.2407C133.811 24.1814 133.818 24.1178 133.81 24.0553C133.801 23.9929 133.778 23.9333 133.742 23.8818C133.705 23.8302 133.657 23.7881 133.601 23.759C133.545 23.73 133.483 23.7148 133.42 23.7148H129.153C128.991 23.7148 128.833 23.7648 128.701 23.858C128.569 23.9511 128.469 24.0829 128.414 24.2352C127.807 25.9281 127.193 27.6192 126.592 29.272C124.546 34.9019 122.43 40.7236 120.663 46.5153L120.606 46.704C120.547 46.8982 120.487 47.0939 120.427 47.2914C120.378 47.4529 120.279 47.5945 120.143 47.6952C120.008 47.7958 119.844 47.8502 119.675 47.8504H117.306C117.245 47.8504 117.185 47.8364 117.131 47.8093C117.077 47.7823 117.029 47.7429 116.993 47.6945C116.956 47.646 116.931 47.5897 116.92 47.53C116.909 47.4702 116.912 47.4087 116.928 47.3503C117.089 46.7929 117.254 46.2509 117.413 45.7291L117.471 45.5412C119.263 39.6658 121.394 33.8022 123.455 28.1318C123.92 26.8518 124.393 25.5488 124.864 24.2409C124.885 24.1815 124.892 24.1179 124.884 24.0554C124.875 23.9929 124.852 23.9334 124.816 23.8818C124.78 23.8302 124.731 23.7881 124.676 23.759C124.62 23.7299 124.557 23.7147 124.494 23.7147H111.974C111.879 23.7146 111.786 23.6917 111.702 23.648C111.618 23.6044 111.546 23.5412 111.492 23.4637C111.437 23.3863 111.402 23.297 111.39 23.2032C111.377 23.1095 111.387 23.0141 111.419 22.9251C111.664 22.2459 111.908 21.5687 112.153 20.8936C112.208 20.7419 112.308 20.6109 112.44 20.5184C112.572 20.4258 112.73 20.3763 112.891 20.3764H145.577C145.64 20.3765 145.702 20.3918 145.758 20.4211C145.814 20.4503 145.862 20.4925 145.898 20.5443C145.935 20.596 145.958 20.6557 145.966 20.7183C145.974 20.7809 145.967 20.8446 145.946 20.904C145.728 21.504 145.512 22.1004 145.296 22.693C145.235 22.8607 145.174 23.0288 145.113 23.1973C145.058 23.349 144.958 23.48 144.826 23.5726C144.694 23.6651 144.536 23.7147 144.375 23.7147H138.077C137.915 23.7145 137.757 23.7643 137.625 23.8572C137.493 23.9502 137.392 24.0818 137.338 24.2339C136.688 26.0454 135.928 28.1444 135.505 29.3095C135.479 29.3809 135.475 29.4582 135.492 29.5321C135.509 29.606 135.548 29.6734 135.603 29.7259C135.657 29.7784 135.726 29.8139 135.801 29.8281C135.875 29.8422 135.952 29.8344 136.023 29.8056C136.049 29.7948 136.076 29.7844 136.102 29.774C137.25 29.2937 138.54 29.2825 139.696 29.7428C141.618 30.5643 144.431 33.0524 141.676 40.4837C141.392 41.2292 141.201 42.0064 141.106 42.7981C141.029 43.4936 140.855 44.2585 141.558 44.7139C143.165 45.7551 144.669 42.3694 145.205 41.3707C146.319 39.2609 147.253 37.0612 147.998 34.7948C148.028 34.6938 148.022 34.5854 147.982 34.4882C147.941 34.3909 147.868 34.3109 147.774 34.2618C147.496 34.116 147.245 33.9219 147.035 33.6887C145.722 32.1974 145.722 29.7632 146.388 28.2298C146.955 26.9264 147.991 26.1582 149.232 26.1222C149.636 26.1051 150.039 26.1875 150.404 26.3623C150.769 26.5371 151.086 26.7989 151.327 27.1247C152.08 28.1209 152.169 29.7416 151.975 31.4051C151.969 31.4597 151.974 31.5149 151.991 31.5673C152.007 31.6197 152.035 31.668 152.071 31.709C152.108 31.75 152.153 31.7828 152.203 31.8052C152.253 31.8276 152.307 31.8392 152.362 31.8391C154.044 31.8296 155.724 31.7286 157.394 31.5365C157.467 31.528 157.542 31.5404 157.608 31.5723C157.675 31.6041 157.731 31.6541 157.77 31.7165L159.022 33.7034C159.061 33.7649 159.081 33.8358 159.082 33.9084C159.083 33.981 159.064 34.0525 159.026 34.1147C158.228 35.4506 157.532 36.8453 156.945 38.2867C156.504 39.3455 156.147 40.4377 155.879 41.5531C155.744 42.1333 155.177 43.9016 155.799 44.3462C155.901 44.4075 156.016 44.4408 156.135 44.4425C156.253 44.4442 156.37 44.4142 156.473 44.3557C157.896 43.6351 159.215 41.7041 159.791 40.27C160.398 38.7596 160.61 37.1351 161.264 35.6384C161.885 34.2414 162.721 32.9497 163.739 31.8099C165.188 30.1691 167.017 29.2746 169.285 29.3997C171.344 29.5133 173.295 31.0941 173.877 33.085C174.815 36.2957 173.339 38.803 170.446 40.4303C168.621 41.4568 166.642 42.0572 164.609 42.501C164.124 42.6069 164.048 42.7259 164.28 43.1548C164.527 43.6483 164.908 44.0626 165.379 44.3504C165.849 44.6381 166.392 44.7879 166.943 44.7826C169.804 44.8576 172.082 43.6258 173.823 41.4532C174.955 40.0986 175.913 38.608 176.676 37.016C177.233 35.7909 177.667 34.6162 178.466 33.5106C179.066 32.67 179.777 31.9148 180.58 31.2657C181.44 30.5622 182.436 30.0419 183.505 29.7368C184.093 29.5739 184.703 29.5008 185.313 29.5201C186.611 29.5631 187.847 30.0829 188.785 30.9801C189.037 31.2211 189.266 31.4848 189.469 31.7681C189.666 31.2292 189.867 30.6957 190.074 30.1752C190.094 30.1272 190.122 30.0834 190.158 30.0465C190.195 30.0095 190.238 29.9801 190.286 29.96C190.333 29.9398 190.385 29.9292 190.436 29.9289C190.488 29.9286 190.539 29.9385 190.587 29.9581L192.952 30.9186C193.048 30.9574 193.125 31.0326 193.166 31.1279C193.206 31.2231 193.207 31.3305 193.169 31.4265C192.541 33.0045 191.958 34.6801 191.434 36.4141C191.356 36.6731 191.271 36.9447 191.184 37.226C190.986 37.8614 190.768 38.566 190.573 39.2903C190.514 39.5619 190.446 39.8307 190.37 40.0968C190.017 41.6081 189.834 43.1306 190.222 44.2429C190.3 44.4607 190.457 44.6409 190.663 44.747C190.902 44.8648 191.399 45.11 192.374 44.1867C194.14 42.5133 194.65 40.2292 195.339 37.9937C195.771 36.5192 196.441 35.1254 197.323 33.8676C197.923 33.027 198.634 32.2718 199.437 31.6227C200.298 30.9192 201.293 30.3989 202.362 30.0938C202.951 29.9308 203.561 29.8578 204.171 29.8772C205.468 29.92 206.705 30.4398 207.643 31.3372C207.736 31.4252 207.825 31.5161 207.909 31.6097C207.955 31.659 208.012 31.6958 208.076 31.7167C208.14 31.7376 208.208 31.7417 208.273 31.7288C208.339 31.7159 208.401 31.6864 208.452 31.643C208.503 31.5997 208.542 31.5439 208.566 31.4811C208.688 31.1571 208.812 30.8365 208.938 30.5193C209.228 29.7198 209.517 28.9234 209.802 28.1383C210.64 25.8334 211.505 23.4538 212.335 21.1054C212.352 21.0569 212.378 21.0122 212.413 20.974C212.447 20.9357 212.489 20.9046 212.535 20.8824C212.582 20.8602 212.632 20.8474 212.684 20.8447C212.735 20.842 212.786 20.8495 212.835 20.8666L215.242 21.7154C215.291 21.7325 215.336 21.759 215.374 21.7934C215.413 21.8279 215.444 21.8695 215.466 21.9161C215.489 21.9626 215.502 22.0131 215.504 22.0646C215.507 22.1162 215.5 22.1677 215.483 22.2164C214.647 24.5788 213.78 26.9661 212.939 29.2783C212.683 29.9848 212.423 30.7004 212.163 31.4188L212.172 31.4224C212.125 31.5369 212.081 31.6561 212.035 31.7717C211.574 33.0437 211.113 34.3244 210.66 35.5981C210.535 35.9863 210.411 36.3762 210.292 36.7708C210.214 37.0299 210.129 37.3012 210.042 37.5825C209.844 38.2181 209.626 38.9229 209.431 39.6474C209.372 39.9188 209.304 40.1874 209.228 40.4534C208.874 41.9647 208.692 43.4873 209.079 44.5998C209.157 44.8176 209.315 44.9976 209.52 45.1038C209.76 45.2213 210.257 45.4666 211.231 44.5435C211.939 43.821 212.531 42.9942 212.988 42.0919C213.037 42.0021 213.119 41.9349 213.216 41.9046C213.314 41.8743 213.42 41.8834 213.511 41.9299L215.786 43.0886C215.832 43.1124 215.874 43.1454 215.908 43.1856C215.941 43.2258 215.967 43.2723 215.982 43.3224C215.998 43.3726 216.003 43.4253 215.998 43.4775C215.993 43.5298 215.977 43.5804 215.952 43.6266V43.6266ZM164.302 38.9815L164.304 38.981C165.936 38.5731 167.57 38.1654 169.042 37.3103C169.815 36.8615 170.415 36.2668 170.593 35.3387C170.874 33.8732 169.819 32.6701 168.408 32.9475C167.82 33.0685 167.266 33.3151 166.783 33.6702C165.602 34.5465 164.954 35.8181 164.473 37.1721C164.3 37.6612 164.175 38.1675 164.028 38.7038C164.017 38.7419 164.017 38.7822 164.027 38.8204C164.037 38.8587 164.057 38.8936 164.085 38.9217C164.113 38.9499 164.148 38.9702 164.186 38.9807C164.224 38.9912 164.264 38.9915 164.302 38.9815H164.302ZM187.492 35.9002C187.43 35.264 187.238 34.6473 186.929 34.0876C186.8 33.8601 186.636 33.6537 186.444 33.4754C186.112 33.1645 185.672 32.9943 185.217 33.0003C184.96 33.0029 184.704 33.0439 184.459 33.1218C183.864 33.3196 183.314 33.6345 182.843 34.0481C181.766 35.0014 180.935 36.1995 180.419 37.5413C179.864 38.8603 179.637 40.2941 179.758 41.72C179.807 42.3327 179.979 42.9293 180.264 43.4738C180.382 43.6904 180.531 43.8882 180.706 44.0606C180.857 44.2067 181.032 44.3268 181.222 44.4157C181.417 44.4985 181.626 44.5469 181.837 44.5586C182.088 44.568 182.338 44.5394 182.58 44.4735C183.182 44.3031 183.743 44.0111 184.228 43.6158C185.347 42.6897 186.223 41.5026 186.776 40.159C187.067 39.4771 187.281 38.7648 187.414 38.0353C187.543 37.3311 187.569 36.6119 187.492 35.9002V35.9002ZM206.349 36.2573C206.287 35.6211 206.096 35.0043 205.787 34.4447C205.657 34.2171 205.494 34.0107 205.302 33.8325C204.969 33.5215 204.529 33.3512 204.074 33.3573C203.817 33.3599 203.561 33.4009 203.316 33.4788C202.721 33.6766 202.172 33.9916 201.7 34.4051C200.624 35.3583 199.793 36.5564 199.276 37.8982C198.721 39.2172 198.494 40.651 198.615 42.0769C198.664 42.6896 198.837 43.2861 199.122 43.8306C199.239 44.0473 199.388 44.2451 199.564 44.4174C199.715 44.5636 199.889 44.6837 200.08 44.7726C200.275 44.8554 200.483 44.9037 200.695 44.9155C200.945 44.9249 201.196 44.8962 201.438 44.8304C202.04 44.66 202.6 44.3681 203.085 43.9727C204.205 43.0466 205.08 41.8595 205.633 40.5158C205.925 39.834 206.139 39.1217 206.272 38.3923C206.4 37.6881 206.426 36.969 206.349 36.2573V36.2573Z" fill="white"/>
</svg>