<?xml version="1.0" encoding="utf-8"?>
<svg xmlns="http://www.w3.org/2000/svg" width="250" height="75" viewBox="0 0 250 75" fill="none">
<path d="M59.7947 14.8561H69.2461V22.2556H73.5366V14.8561H83.2367V38.8577C83.2367 38.8577 83.8585 44.2052 81.4956 47.2521C78.6353 50.7963 73.4744 50.2989 73.4744 50.2989V25.489H69.1839V50.2989C69.1839 50.2989 65.7018 50.8585 62.0332 47.8739C59.2351 45.5732 59.7947 38.8577 59.7947 38.8577V14.8561ZM155.49 45.8219H150.329C150.329 45.8219 149.334 46.1328 148.402 45.2001C147.407 44.2674 147.593 42.1533 147.593 42.1533V26.546C147.593 26.546 147.593 24.9293 149.21 24.8672C151.075 24.805 151.386 26.546 151.386 26.546V38.7334C151.013 41.2206 148.899 42.2155 148.899 42.2155C148.899 42.2155 155.615 42.7129 157.604 41.4071C160.154 39.6661 160.216 36.8058 160.216 36.8058V30.4012C160.216 27.7896 159.221 25.9242 157.356 24.3075C154.931 22.2556 152.568 22.1312 150.08 22.069C148.588 22.0069 143.365 22.0069 140.753 25.1781C138.702 27.6653 138.515 30.4012 138.515 30.4012V40.8475C138.515 40.8475 138.515 43.9565 140.816 46.5681C144.049 50.2367 147.593 49.9258 147.593 49.9258H155.49V45.8219ZM131.489 14.8561L122.472 42.5264V14.8561H113.518V31.2095C114.886 31.8935 115.819 33.2615 115.819 34.8782C115.819 36.4949 114.886 37.8628 113.518 38.5468V49.8636H115.757C122.472 49.8636 125.271 50.2367 128.939 46.3815C130.245 45.0136 131.426 42.1533 131.426 42.1533L141.997 14.7939H131.489V14.8561ZM107.611 34.8782C107.611 33.3237 108.482 32.0179 109.725 31.3339V22.3178H100.709V46.7546C100.709 46.7546 97.7247 47.0033 97.1029 45.9463C96.4811 44.8892 96.6054 42.2155 96.6054 42.2155V22.3178H87.0297V42.2776C87.0297 42.2776 87.3406 46.0085 89.206 47.8117C91.7554 50.2989 95.2997 49.988 95.2997 49.988H100.647V59.2529H109.663V38.4846C108.482 37.7385 107.611 36.4327 107.611 34.8782ZM179.678 49.8636V45.8219H174.517C174.517 45.8219 173.522 46.1328 172.59 45.2001C171.595 44.2674 171.781 42.1533 171.781 42.1533V26.4838C171.781 26.4838 171.781 24.8672 173.398 24.805C175.264 24.7428 175.574 26.4838 175.574 26.4838V38.6712C175.201 41.1584 173.087 42.1533 173.087 42.1533C173.087 42.1533 179.803 42.6507 181.792 41.3449C184.342 39.6039 184.404 36.7436 184.404 36.7436V30.339C184.404 27.7274 183.409 25.862 181.544 24.2454C179.119 22.1934 176.756 22.069 174.269 22.0069C172.776 21.9447 167.553 21.9447 164.942 25.1159C162.89 27.6031 162.703 30.339 162.703 30.339V40.7853C162.703 40.7853 162.703 43.8943 165.004 46.5059C168.237 50.1745 171.781 49.8636 171.781 49.8636H179.678Z" fill="white"/>
</svg>