<?xml version="1.0" encoding="utf-8"?>
<svg xmlns="http://www.w3.org/2000/svg" width="250" height="75" viewBox="0 0 250 75" fill="none">
<path fill-rule="evenodd" clip-rule="evenodd" d="M201.633 60.3093H195.615L186.301 51.8076H194.208L198.058 55.1595L207.626 27.8718H214L201.628 60.3144L201.633 60.3093Z" fill="white"/>
<path fill-rule="evenodd" clip-rule="evenodd" d="M93.8282 25.8352C92.4061 25.8352 91.1669 26.1907 90.1106 26.8967C89.0542 27.5924 88.2416 28.6133 87.6576 29.954C87.0735 31.2846 86.784 32.854 86.784 34.8092C86.784 36.7645 87.0786 38.4151 87.6576 39.7457C88.2467 41.0763 89.0694 42.0819 90.1258 42.7625C91.1822 43.443 92.4011 43.7833 93.7875 43.7833C94.5646 43.7833 95.2858 43.6817 95.946 43.4735C96.6164 43.2703 97.2106 42.9707 97.7286 42.5746C98.2517 42.1733 98.6783 41.6858 99.0186 41.1119C99.369 40.538 99.6128 39.8828 99.7448 39.1515L105.621 39.1769C105.469 40.4415 105.088 41.6553 104.478 42.8285C103.879 43.9915 103.071 45.0377 102.051 45.957C101.04 46.8711 99.8362 47.5923 98.4295 48.1306C97.0328 48.6588 95.4533 48.9229 93.691 48.9229C91.238 48.9229 89.0441 48.3642 87.1142 47.2571C85.1944 46.1499 83.6708 44.5451 82.5535 42.4425C81.4413 40.3399 80.8877 37.8057 80.8877 34.8092C80.8877 31.8128 81.4514 29.2633 82.5789 27.1608C83.7064 25.0582 85.2401 23.4584 87.17 22.3563C89.0999 21.2441 91.2736 20.6905 93.691 20.6905C95.2858 20.6905 96.7586 20.914 98.1197 21.3609C99.4858 21.8078 100.7 22.463 101.756 23.3213C102.812 24.1745 103.671 25.2156 104.331 26.4497C105.001 27.6839 105.433 29.0957 105.621 30.6904H99.7448C99.6382 29.9286 99.4198 29.2532 99.0897 28.664C98.7596 28.0648 98.333 27.5569 97.8149 27.1354C97.2969 26.7138 96.6976 26.3939 96.0171 26.1704C95.3467 25.947 94.6154 25.8352 93.8282 25.8352ZM118.994 27.6737C120.426 27.6737 121.67 27.9886 122.737 28.6133C123.808 29.2329 124.646 30.1318 125.235 31.2948C125.835 32.4477 126.129 33.8291 126.119 35.439V48.5623H120.4V36.4598C120.411 35.1901 120.091 34.1998 119.435 33.4939C118.79 32.7879 117.886 32.4324 116.723 32.4324C115.946 32.4324 115.256 32.6 114.656 32.9301C114.067 33.2602 113.6 33.7427 113.26 34.3776C112.93 35.0022 112.762 35.759 112.752 36.6426V48.5572H107.033V21.0765H112.589V31.5792H112.833C113.3 30.3603 114.052 29.4106 115.088 28.7199C116.124 28.0241 117.429 27.6737 118.994 27.6737ZM143.65 30.2791C142.772 29.4106 141.746 28.7605 140.563 28.3339C139.389 27.8972 138.125 27.6788 136.764 27.6788C134.742 27.6788 132.98 28.1257 131.477 29.0196C129.984 29.9134 128.826 31.1628 128.003 32.7625C127.18 34.3623 126.769 36.2262 126.769 38.344C126.769 40.4618 127.18 42.4019 128.003 43.9915C128.826 45.576 129.999 46.8 131.517 47.6685C133.046 48.5268 134.874 48.9584 136.992 48.9584C138.694 48.9584 140.192 48.6994 141.487 48.1814C142.792 47.6532 143.859 46.9219 144.681 45.9823C145.514 45.0326 146.063 43.9255 146.332 42.6558L141.045 42.3054C140.847 42.8234 140.563 43.2602 140.187 43.6208C139.811 43.9763 139.359 44.2454 138.831 44.4283C138.303 44.606 137.724 44.6974 137.089 44.6974C136.134 44.6974 135.306 44.4943 134.605 44.0931C133.904 43.6919 133.366 43.118 132.98 42.3765C132.604 41.635 132.416 40.7361 132.416 39.7203H146.454V38.151C146.454 36.3989 146.21 34.8702 145.717 33.5599C145.225 32.2445 144.539 31.1475 143.65 30.2791ZM132.797 36.1703C132.833 35.4288 133.021 34.7534 133.366 34.1439C133.742 33.4736 134.26 32.9403 134.925 32.5492C135.596 32.148 136.368 31.9449 137.231 31.9449C138.094 31.9449 138.79 32.1277 139.42 32.4934C140.055 32.8489 140.552 33.3466 140.908 33.9814C141.263 34.6163 141.446 35.3476 141.446 36.1703H132.797ZM157.286 32.1277C156.403 32.1277 155.631 32.3664 154.97 32.8489C154.32 33.3263 153.807 34.017 153.442 34.9311C153.076 35.8453 152.893 36.9372 152.893 38.2475C152.893 39.5578 153.076 40.6802 153.432 41.5994C153.797 42.5238 154.315 43.2246 154.975 43.7071C155.636 44.1896 156.413 44.4333 157.296 44.4333C157.946 44.4333 158.536 44.3013 159.054 44.0321C159.582 43.763 160.013 43.3719 160.354 42.864C160.704 42.346 160.933 41.7264 161.039 41.0002H166.433C166.342 42.5745 165.915 43.961 165.143 45.1596C164.381 46.3531 163.33 47.2825 161.989 47.9529C160.648 48.6233 159.059 48.9584 157.225 48.9584C155.113 48.9584 153.294 48.5115 151.776 47.6177C150.262 46.7137 149.099 45.4592 148.287 43.8594C147.479 42.2546 147.078 40.4415 147.078 38.3288C147.078 36.216 147.484 34.3674 148.297 32.7727C149.12 31.1729 150.288 29.9236 151.801 29.0297C153.315 28.1257 155.113 27.6737 157.195 27.6737C158.993 27.6737 160.567 27.9987 161.918 28.6539C163.264 29.309 164.335 30.2232 165.123 31.4065C165.91 32.5848 166.342 33.9713 166.423 35.566H161.029C160.877 34.535 160.476 33.7072 159.82 33.0825C159.181 32.4477 158.332 32.1277 157.286 32.1277ZM186.789 27.9429H180.07L173.468 35.764H173.158V21.0765H167.439V48.5572H173.158V42.0159L174.707 40.2485L180.324 48.5623H192.508V21.0765H186.789V24.5122V27.9429ZM178.983 36.8712L186.789 27.9683V48.222L178.983 36.8712ZM192.929 27.9429H198.937L201.989 38.3034L198.937 46.9168L192.929 27.9429Z" fill="white"/>
<path fill-rule="evenodd" clip-rule="evenodd" d="M72.2011 41.0467V39.5945V23.1438C72.2011 19.3443 69.1203 16.2636 65.3209 16.2636H43.8372C40.0378 16.2636 36.957 19.3443 36.957 23.1438V39.5945V39.618L36.9563 39.6415C36.7679 45.4534 38.6602 47.8396 40.3496 48.9002C41.2096 49.4401 42.1111 49.7038 42.8979 49.8316C40.874 47.6509 39.9252 44.7401 39.9262 44.7391C41.9769 44.4646 44.4057 43.6648 43.2974 41.7013C39.7307 34.0345 40.4056 28.9849 49.2857 35.0922C50.9477 34.4008 52.4978 34.2606 54.5532 34.217C54.5579 34.2182 54.5626 34.2182 54.5673 34.2182H54.5944H54.6086C56.664 34.2618 58.2129 34.4008 59.8761 35.0922C68.7549 28.9849 69.4311 34.0356 65.8644 41.7013L65.8656 41.7025C64.7572 43.666 67.1848 44.4658 69.2367 44.7402C69.2377 44.7413 68.2895 47.6505 66.2668 49.8309C67.0523 49.7029 67.9517 49.4393 68.8098 48.9006C70.356 47.9301 72.0722 45.849 72.2075 41.0467H72.2011ZM49.8904 52.2585C49.8659 52.214 50.1234 51.1011 50.1558 50.9866C50.2418 50.6827 50.3466 50.3823 50.4927 50.102C50.6976 49.7074 50.9862 49.3776 51.3631 49.1408C51.5869 49.0004 51.8265 48.8887 52.066 48.777L52.0661 48.777C52.2022 48.7135 52.3383 48.65 52.4715 48.5813C52.8932 48.3634 53.2984 48.1007 53.6376 47.7674C53.971 47.4411 54.0793 47.076 54.0746 46.6131C54.0711 46.3221 54.0075 46.0347 53.8932 45.7674C53.7754 45.4917 53.6046 45.2408 53.4044 45.0194V45.0206C53.1877 44.7826 52.9356 44.5777 52.6635 44.4057C52.3702 44.2208 52.0534 44.0724 51.7259 43.9593C51.3773 43.8392 51.0145 43.7591 50.6482 43.7167C50.2618 43.6731 49.8707 43.6719 49.4844 43.7143C49.078 43.7579 48.6764 43.8498 48.2912 43.9864C47.8801 44.1324 47.4879 44.3292 47.1239 44.5694C46.7258 44.8333 46.3618 45.1478 46.0391 45.5C45.6728 45.8981 45.3583 46.3422 45.0909 46.8121C44.7799 47.3599 44.5326 47.9429 44.3359 48.5424C44.1038 49.2492 43.9425 49.9783 43.8317 50.7133L43.8184 50.8009L43.8184 50.8009L43.8184 50.801C43.8064 50.8794 43.7946 50.9567 43.7834 51.0384C43.7808 51.0556 43.7771 51.0783 43.7729 51.1043C43.76 51.1831 43.7422 51.2917 43.7352 51.367C43.811 51.3758 43.8868 51.3847 43.9626 51.3936C41.3816 51.2936 35.1615 50.1874 35.5049 39.5945V23.1438C35.5049 18.5423 39.2358 14.8114 43.8372 14.8114H65.3209C69.9223 14.8114 73.6532 18.5423 73.6532 23.1438V38.1423V39.5945H73.6545C73.9972 50.1693 67.8003 51.2898 65.2108 51.3931C65.2819 51.3848 65.353 51.3764 65.4241 51.3682V51.367C65.416 51.2898 65.3984 51.1797 65.3857 51.101L65.3758 51.0384C65.366 50.9604 65.3544 50.8864 65.3427 50.8117C65.3376 50.7792 65.3325 50.7465 65.3275 50.7133C65.2168 49.9783 65.0554 49.2492 64.8234 48.5424C64.6267 47.9441 64.3793 47.361 64.0684 46.8121C63.801 46.3422 63.4865 45.8981 63.1202 45.5C62.7974 45.149 62.4335 44.8333 62.0354 44.5694C61.6714 44.3292 61.2792 44.1313 60.8681 43.9864C60.4829 43.8498 60.0812 43.7579 59.6749 43.7143C59.2885 43.6719 58.8975 43.6731 58.5111 43.7167C58.1448 43.7579 57.782 43.8392 57.4334 43.9593C57.1059 44.0724 56.7891 44.2208 56.4958 44.4057C56.2237 44.5777 55.9716 44.7826 55.7549 45.0206C55.5535 45.242 55.3838 45.4929 55.2661 45.7685C55.1518 46.0359 55.087 46.3233 55.0847 46.6143C55.0799 47.0772 55.1883 47.4411 55.5217 47.7686C55.8609 48.1019 56.2661 48.3646 56.6878 48.5825C56.8207 48.6511 56.9565 48.7143 57.0923 48.7775L57.0925 48.7775L57.0925 48.7776C57.3323 48.8891 57.5721 49.0007 57.7961 49.142C58.1731 49.3787 58.4617 49.7086 58.6666 50.1031C58.8115 50.3835 58.9175 50.6838 59.0035 50.9877C59.0365 51.1043 59.3027 52.2551 59.2673 52.261C59.2681 52.2609 59.2688 52.2608 59.2696 52.2606L59.2683 52.261C59.2637 52.2615 58.9499 52.3553 58.5497 52.4749L58.5495 52.475C57.9196 52.6633 57.0755 52.9156 56.8854 52.9689C56.399 53.7652 55.5521 54.3906 54.5956 54.4001H54.5815H54.5673C54.5671 54.4001 54.5669 54.4001 54.5667 54.4001H54.5798H54.5939C55.5504 54.3906 56.3973 53.7652 56.8849 52.9689C56.8837 52.9666 56.8825 52.9642 56.8814 52.9607L56.8802 52.9595L56.8769 52.9521L56.8667 52.9287L56.8625 52.9195C56.6199 52.3741 56.1252 51.9819 55.5727 51.7793C54.9308 51.5437 54.1958 51.5472 53.555 51.791C53.0132 51.9972 52.5385 52.3847 52.297 52.9195C52.2912 52.9324 52.2853 52.9454 52.2794 52.9595L52.2771 52.9643L52.276 52.9673C52.0985 52.9175 51.3731 52.7005 50.7691 52.5199L50.7665 52.5191L50.7654 52.5188C50.2954 52.3782 49.8998 52.2598 49.8947 52.2598L49.8904 52.2585ZM43.5228 34.1216C43.385 34.1511 43.246 34.1911 43.127 34.2677C42.7756 34.4951 42.8208 34.9909 42.8553 35.3704C42.8585 35.4056 42.8617 35.4398 42.8644 35.4726C42.9256 36.2135 43.0882 36.9568 43.2825 37.68C43.418 38.1841 43.584 38.6824 43.7961 39.1606C44.0352 38.7884 44.3002 38.4468 44.577 38.1347C44.8032 37.8791 45.0364 37.6435 45.2696 37.4279C46.5405 36.2524 47.8056 35.6682 47.8056 35.6682C46.5853 34.7907 45.0964 33.7824 43.524 34.1204L43.5228 34.1216ZM65.6354 34.1216C65.7732 34.1511 65.9122 34.1911 66.0312 34.2677C66.3826 34.4951 66.3374 34.9909 66.3029 35.3704C66.2997 35.4056 66.2966 35.4398 66.2939 35.4726C66.2326 36.2135 66.0701 36.9568 65.8757 37.68C65.7403 38.1841 65.5742 38.6824 65.3622 39.1606C65.123 38.7884 64.858 38.4468 64.5812 38.1347C64.3551 37.8791 64.1218 37.6435 63.8886 37.4279C62.6177 36.2524 61.3526 35.6682 61.3526 35.6682C62.5729 34.7907 64.0618 33.7824 65.6342 34.1204L65.6354 34.1216ZM50.6353 47.7179C51.1414 47.7179 51.5517 47.3076 51.5517 46.8015C51.5517 46.2954 51.1414 45.8851 50.6353 45.8851C50.1292 45.8851 49.7189 46.2954 49.7189 46.8015C49.7189 47.3076 50.1292 47.7179 50.6353 47.7179ZM58.5236 47.7179C59.0297 47.7179 59.44 47.3076 59.44 46.8015C59.44 46.2954 59.0297 45.8851 58.5236 45.8851C58.0175 45.8851 57.6072 46.2954 57.6072 46.8015C57.6072 47.3076 58.0175 47.7179 58.5236 47.7179Z" fill="white"/>
</svg>