<?xml version="1.0" encoding="utf-8"?>
<svg xmlns="http://www.w3.org/2000/svg" width="250" height="75" viewBox="0 0 250 75" fill="none">
<path fill-rule="evenodd" clip-rule="evenodd" d="M204.101 41.4329C203.581 41.0866 202.845 41.2598 202.542 41.8226C195.918 52.6029 169.941 50.5247 142.45 48.3167C130.241 47.321 117.599 46.3252 105.779 46.3252C91.0593 46.3252 73.9148 46.7581 62.0521 48.4899C64.1736 41.4329 66.3383 34.1595 66.3383 34.1595C66.5114 33.5534 66.1651 32.9473 65.6023 32.7308C64.9961 32.5576 64.39 32.8607 64.1736 33.4668C61.3594 42.1689 56.3806 44.0739 53.0036 43.0348C49.0206 41.8659 45.9034 36.7139 47.8949 29.4837C48.6742 26.6263 49.973 24.1585 51.5316 22.0371C52.0512 22.2969 52.614 22.5133 53.2201 22.7298C56.7702 23.942 61.143 24.0719 64.6498 22.903C69.2823 21.3444 72.7025 18.0107 71.5769 14.374C70.5378 11.1702 66.7712 10.7806 63.2211 11.6465C59.1081 12.5989 54.5622 15.0667 51.0121 19.0931C49.0638 17.7077 47.3754 15.3265 48.501 11.4733C48.7175 10.8672 48.3711 10.2178 47.765 10.0446C47.1589 9.8714 46.5095 10.2178 46.3363 10.8239C45.1241 14.8935 46.3796 18.487 49.5834 20.8681C47.8949 23.1627 46.5528 25.847 45.6869 28.8776C43.349 37.4931 47.3321 43.7275 52.3109 45.1995C54.9952 45.9788 58.3721 45.5026 61.4027 42.6885C61.1561 43.4988 60.9095 44.3307 60.6599 45.1723L60.6599 45.1725C60.2961 46.3993 59.9262 47.647 59.5411 48.8795C54.7354 49.7021 51.0554 50.7845 49.1504 52.2132C46.9857 53.5553 45.557 55.9798 45.4704 58.5342C45.3838 60.8721 46.4662 62.9502 48.4144 64.2923C49.4535 64.985 50.6224 65.3747 51.7914 65.3747C52.4841 65.3747 53.1335 65.2448 53.8262 65.0283C56.1641 64.2057 58.0258 61.9977 58.8916 59.1836C59.1419 58.3614 59.4364 57.3622 59.766 56.2437C60.2348 54.6529 60.7747 52.821 61.3594 50.9144C70.9708 49.4424 86.0805 48.6198 105.779 48.6198C117.512 48.6198 130.067 49.6156 142.276 50.6113C171.717 52.9925 197.13 55.0273 204.49 43.0348C204.793 42.472 204.62 41.7793 204.101 41.4329ZM63.7406 13.8545C66.295 13.2484 68.7627 13.3349 69.3256 15.0667C70.4945 18.7467 62.182 23.3792 53.9994 20.5651C53.8421 20.5127 53.6689 20.4443 53.4799 20.3698L53.4797 20.3697C53.3566 20.3212 53.2268 20.2699 53.0902 20.2187C56.2074 16.8418 60.1905 14.7204 63.7406 13.8545ZM56.6836 58.4909C56.0342 60.6123 54.6921 62.2575 53.0469 62.8203C51.878 63.2532 50.7523 63.0801 49.7133 62.3874C48.4144 61.5215 47.7217 60.1794 47.765 58.5775C47.8083 56.7591 48.8474 55.0273 50.3627 54.1182C50.406 54.1182 50.4493 54.0749 50.4493 54.0316C51.878 52.9492 54.6921 52.04 58.8051 51.2607C58.2536 53.1762 57.7217 54.9749 57.2744 56.4874L57.2741 56.4883C57.0542 57.2317 56.8548 57.906 56.6836 58.4909ZM136.348 21.0833C139.464 19.3954 144.051 20.1736 148.898 20.9959L148.903 20.9967C150.289 21.2565 151.718 21.4729 153.146 21.6894C151.847 26.4518 150.289 32.2965 150.072 33.1624C149.163 36.5394 149.856 38.3577 150.592 39.3102C151.285 40.2194 152.324 40.7389 153.449 40.7389C154.099 40.7389 154.575 40.2194 154.575 39.6133C154.575 38.9638 154.055 38.4876 153.449 38.4876C153.233 38.4876 152.757 38.401 152.41 37.9681C152.064 37.5351 151.588 36.3662 152.28 33.7685V33.7252C152.387 33.2435 153.073 30.7107 153.888 27.7013L153.89 27.6966C154.393 25.8386 154.945 23.7994 155.441 21.9492C156.307 22.0358 157.173 22.0791 157.995 22.0791C160.55 22.0791 163.017 21.6894 165.312 20.5638C165.875 20.304 166.091 19.6113 165.831 19.0485C165.572 18.4856 164.879 18.2692 164.316 18.5289C161.848 19.7412 158.991 19.9576 156.047 19.7412C156.23 19.0638 156.395 18.4461 156.536 17.9198C156.827 16.8316 157.014 16.1336 157.043 16.1045C157.216 15.4983 156.826 14.8489 156.22 14.719C155.614 14.5459 154.965 14.9355 154.835 15.5416C154.791 15.7581 154.358 17.36 153.752 19.5247C152.28 19.3515 150.765 19.0918 149.293 18.832L149.283 18.8302C144.048 17.9217 139.073 17.0583 135.266 19.1351C134.703 19.4381 134.486 20.1308 134.789 20.6937C135.136 21.1699 135.829 21.3864 136.348 21.0833ZM116.817 40.7833C116.211 40.6534 115.821 40.004 115.994 39.3978L119.458 26.4962C119.588 25.89 120.237 25.5004 120.843 25.6736C121.233 25.8034 121.536 26.1065 121.622 26.4962C122.618 25.8467 123.744 25.5004 124.913 25.5004C126.428 25.5004 127.727 26.1065 128.593 27.1889C129.589 28.4444 129.935 30.2195 129.545 32.0378C129.502 32.0811 128.333 36.8868 128.333 36.8868C128.333 36.9583 128.32 37.0429 128.308 37.119C128.298 37.1811 128.29 37.2375 128.29 37.2764C128.246 38.099 128.679 38.5753 129.502 38.5753C130.108 38.5753 130.628 39.0948 130.628 39.7009C130.628 40.307 130.151 40.8266 129.502 40.8266C127.424 40.8266 125.995 39.3978 125.995 37.2764C125.995 36.9993 126.051 36.7499 126.095 36.5504C126.106 36.5006 126.116 36.4538 126.125 36.4105L127.381 31.5616C127.64 30.4359 127.424 29.3536 126.861 28.6609C126.385 28.098 125.735 27.795 124.956 27.795C123.008 27.795 121.06 29.57 120.367 31.9512L118.202 39.9607C118.072 40.4802 117.639 40.8266 117.12 40.8266C117.033 40.8266 116.903 40.8266 116.817 40.7833ZM174.658 40.74C174.571 40.74 174.441 40.74 174.355 40.6967C173.749 40.5235 173.359 39.8741 173.532 39.268L176.952 26.5394C177.082 25.9333 177.732 25.5437 178.338 25.7169C178.728 25.8467 178.987 26.1498 179.117 26.4962C180.113 25.89 181.239 25.5437 182.408 25.5437C183.403 25.5437 184.313 25.8034 185.092 26.323C185.611 26.7126 185.741 27.4053 185.395 27.9249C185.005 28.4444 184.313 28.5743 183.793 28.2279C183.403 27.9682 182.927 27.8383 182.408 27.8383C180.373 27.8383 178.554 29.4835 177.818 31.9512L176.346 37.5362L175.74 39.8741C175.61 40.3936 175.177 40.74 174.658 40.74ZM160.241 38.0557C160.631 38.5753 161.367 38.835 162.449 38.835C164.44 38.835 166.345 37.06 166.952 34.6355L169.16 26.3663C169.289 25.7601 169.939 25.3705 170.545 25.5437C171.151 25.6736 171.541 26.323 171.368 26.9291L168.986 36.1075C168.813 36.9301 168.943 37.6228 169.376 38.099C169.679 38.4454 170.112 38.6185 170.632 38.5753C171.281 38.532 171.844 39.0082 171.887 39.6143C171.93 40.2637 171.454 40.8266 170.848 40.8699H170.458C169.376 40.8699 168.38 40.3936 167.644 39.6143C167.471 39.3978 167.298 39.1814 167.168 38.9216C166.778 39.4844 164.83 41.1729 162.449 41.1729C160.154 41.1729 158.942 40.2204 158.379 39.4411C157.513 38.2722 157.34 36.4971 157.903 34.5489L160.111 26.323C160.241 25.7169 160.89 25.3272 161.496 25.5004C162.103 25.6303 162.492 26.2797 162.319 26.8858L160.111 35.155C159.721 36.4105 159.765 37.4496 160.241 38.0557ZM90.1474 41.1729C89.498 41.1729 88.8919 41.043 88.2858 40.8266C84.9521 39.571 83.4368 35.2849 84.8655 31.1286C86.0778 27.7084 88.8919 25.4138 91.8792 25.4138C92.5286 25.4138 93.178 25.5437 93.7842 25.7601C95.4726 26.4096 96.7282 27.795 97.3343 29.6999C97.9404 31.5183 97.8538 33.5964 97.1178 35.5447C95.9056 38.9216 93.0915 41.1729 90.1474 41.1729ZM91.9225 27.7084C89.8877 27.7084 87.9394 29.3536 87.0735 31.8646C86.0345 34.8087 86.9437 37.8825 89.0651 38.7051C89.4114 38.835 89.7578 38.8783 90.1474 38.8783C92.0957 38.8783 94.0872 37.1898 94.9964 34.7654C95.5592 33.2501 95.6458 31.7348 95.2129 30.3926C94.8232 29.1804 94.0439 28.2712 93.0482 27.9249C92.7018 27.795 92.3122 27.7084 91.9225 27.7084ZM74.8213 41.1729C74.1719 41.1729 73.5657 41.043 72.9596 40.8266C69.626 39.571 68.1107 35.2849 69.5394 31.1286C70.7516 27.7084 73.5657 25.4138 76.553 25.4138C77.2025 25.4138 77.8519 25.5437 78.458 25.7601C80.1465 26.4096 81.402 27.795 82.0081 29.6999C82.6142 31.5183 82.5277 33.5964 81.7916 35.5447C80.5794 38.9216 77.7653 41.1729 74.8213 41.1729ZM76.5963 27.7084C74.5615 27.7084 72.6133 29.3536 71.7474 31.8646C70.7083 34.8087 71.6175 37.8825 73.7389 38.7051C74.0853 38.835 74.4316 38.8783 74.8213 38.8783C76.7695 38.8783 78.761 37.1898 79.6702 34.7654C80.2331 33.2501 80.3196 31.7348 79.8867 30.3926C79.4971 29.1804 78.7178 28.2712 77.722 27.9249C77.3756 27.795 76.986 27.7084 76.5963 27.7084ZM105.69 41.1296C105.3 41.1296 104.867 41.0863 104.478 40.9997C103.092 40.74 101.837 39.8308 100.841 38.4887C99.7155 36.6703 99.4124 34.2025 100.062 31.9512C101.75 26.0199 106.123 25.5004 107.422 25.5004H107.508C109.197 25.5004 110.669 26.1498 111.708 27.2322C113.223 21.5173 114.998 14.85 115.345 13.5945C115.475 12.9883 116.124 12.5987 116.73 12.7719C117.336 12.9017 117.726 13.5512 117.553 14.1573C115.951 20.1319 111.665 36.324 111.665 36.324C111.492 36.9734 111.578 37.4929 111.838 37.8393C112.098 38.1856 112.617 38.4021 113.18 38.4021C113.786 38.4021 114.306 38.8783 114.306 39.5277C114.306 40.1338 113.829 40.6534 113.18 40.6534C112.054 40.6534 110.972 40.1771 110.236 39.3978C108.98 40.5235 107.335 41.1296 105.69 41.1296ZM107.552 27.7084C106.383 27.7084 103.569 28.2279 102.356 32.5141C101.88 34.1592 102.097 35.9343 102.919 37.2764C103.439 38.1423 104.175 38.7051 104.954 38.835C106.08 39.0515 107.205 38.835 108.158 38.2289C108.504 37.9691 108.764 37.6228 109.024 37.1898C109.113 36.9823 109.222 36.6733 109.338 36.3462C109.391 36.1956 109.445 36.0411 109.5 35.891C109.5 35.8477 110.063 33.683 110.712 31.2152C110.756 30.8689 110.756 30.5658 110.712 30.2195C110.539 29.3536 110.149 28.7907 109.716 28.4011C109.154 27.9682 108.374 27.7084 107.552 27.7084ZM138.507 41.1296C138.118 41.1296 137.685 41.0863 137.295 40.9997C135.823 40.74 134.567 39.8741 133.658 38.6185C132.619 36.9301 132.359 34.7221 132.965 32.3409C134.351 26.9291 138.507 25.5004 140.499 25.5004C142.144 25.5004 143.529 26.0632 144.525 27.1023C144.568 26.9291 144.612 26.7559 144.655 26.626C144.785 26.0199 145.434 25.6303 146.04 25.8034C146.646 25.9333 147.036 26.5827 146.863 27.1889C145.434 32.4708 144.438 36.1941 144.395 36.4538V36.4971C144.222 37.1465 144.309 37.6661 144.568 38.0124C144.828 38.3588 145.348 38.5753 145.91 38.5753C146.517 38.5753 147.036 39.0948 147.036 39.7009C147.036 40.307 146.56 40.8266 145.91 40.8266C144.742 40.8266 143.659 40.3503 142.923 39.5277C141.668 40.5668 140.109 41.1296 138.507 41.1296ZM140.542 27.7084C140.499 27.7084 136.559 27.7517 135.217 32.8171C134.784 34.5489 134.914 36.1508 135.65 37.4063C136.169 38.1856 136.862 38.6618 137.728 38.835C138.55 38.9649 139.416 38.8783 140.196 38.5753C140.932 38.2289 141.278 37.796 141.624 37.1898C141.843 36.7159 142.031 36.1192 142.266 35.3739C142.31 35.2341 142.356 35.089 142.404 34.9385C142.707 34.0294 143.356 31.5183 143.356 31.5183C143.486 30.9555 143.529 30.6091 143.486 30.0463C143.399 29.2237 142.966 28.7042 142.534 28.2712C142.057 27.8816 141.365 27.7084 140.542 27.7084ZM191.456 40.9564C190.114 40.9564 188.858 40.5668 187.993 39.9174C185.265 37.9258 184.702 33.8129 186.694 30.1762C188.729 26.3663 193.145 24.418 196.089 26.0199C197.69 26.8858 198.556 29.0938 197.95 30.9555C197.387 32.6872 195.309 35.3715 187.776 34.5922C187.776 36.0642 188.296 37.3197 189.335 38.099C190.59 39.0082 193.274 39.0948 195.006 36.8435C195.396 36.324 196.089 36.2374 196.608 36.627C197.128 37.0167 197.214 37.7094 196.825 38.2289C195.309 40.1771 193.274 40.9564 191.456 40.9564ZM195.006 28.0547C193.188 27.059 190.114 28.6609 188.685 31.3018C188.469 31.6482 188.339 31.9945 188.209 32.3842C194.4 32.9903 195.569 30.9555 195.785 30.306C196.089 29.3536 195.526 28.3578 195.006 28.0547ZM202.626 52.6459C203.102 52.6459 203.535 52.4727 203.882 52.1264C204.228 51.78 204.401 51.3471 204.401 50.8708C204.401 50.3946 204.228 49.9616 203.882 49.6153C203.535 49.2689 203.102 49.0958 202.626 49.0958C202.15 49.0958 201.717 49.2689 201.37 49.6153C201.024 49.9616 200.851 50.3946 200.851 50.8708C200.851 51.3471 201.024 51.78 201.37 52.1264C201.717 52.4727 202.15 52.6459 202.626 52.6459ZM201.111 50.8708C201.111 50.4379 201.241 50.0915 201.544 49.7885C201.847 49.4854 202.193 49.3122 202.626 49.3555C203.059 49.3555 203.405 49.4854 203.708 49.7885C204.011 50.0915 204.141 50.4379 204.141 50.8708C204.141 51.3038 204.011 51.6501 203.708 51.9532C203.405 52.2562 203.059 52.3861 202.626 52.3861C202.193 52.3861 201.847 52.2562 201.544 51.9532C201.241 51.6501 201.111 51.3038 201.111 50.8708ZM203.102 49.9617C203.016 49.9184 202.842 49.8751 202.583 49.8751V49.9184H201.933V51.8666H202.28V51.0873H202.539C202.713 51.0873 202.842 51.0873 202.929 51.1306C203.059 51.1739 203.102 51.3471 203.102 51.5635V51.8233H203.405V51.3904C203.405 51.3038 203.405 51.1739 203.319 51.0873C203.232 51.0007 203.146 50.9574 202.972 50.9141C203.059 50.9141 203.146 50.8708 203.232 50.8275C203.362 50.7409 203.405 50.6111 203.405 50.4379C203.405 50.2214 203.319 50.0482 203.102 49.9617ZM202.539 50.0915C202.756 50.0915 202.886 50.1348 202.972 50.1781C203.059 50.2214 203.102 50.308 203.102 50.4379C203.102 50.5678 203.016 50.6977 202.886 50.7409C202.799 50.7842 202.669 50.7842 202.539 50.7842H202.236V50.0915H202.539Z" fill="white"/>
</svg>