<?xml version="1.0" encoding="utf-8"?>
<svg xmlns="http://www.w3.org/2000/svg" width="250" height="75" viewBox="0 0 250 75" fill="none">
<path fill-rule="evenodd" clip-rule="evenodd" d="M39.2937 12H70.9131C71.0844 12 71.2068 12.1224 71.2068 12.2937V40.9518C71.2068 41.1231 71.0844 41.2455 70.9131 41.2455H39.2937C39.1224 41.2455 39 41.1231 39 40.9518V12.2937C39 12.1224 39.1224 12 39.2937 12ZM45.8036 26.6595C45.8036 31.7988 49.964 35.9593 55.1034 35.9593C60.2428 35.9593 64.4032 31.7988 64.4032 26.6595C64.4032 21.5201 60.2428 17.3596 55.1034 17.3596C49.964 17.3596 45.8036 21.5201 45.8036 26.6595ZM82.0731 56.3211H79.3076V53.4578H85.793V59.8208C84.0554 61.2402 81.8773 62.0234 79.6502 61.9989C75.2451 61.9989 71.9657 58.9887 71.9657 54.7059V54.6814V54.6325C71.9657 50.521 75.1961 47.2905 79.5768 47.2905C82.0486 47.2905 83.8107 48.0492 85.3036 49.3463L83.0031 52.1117C81.9997 51.2796 80.9963 50.7902 79.6013 50.7902C77.5455 50.7902 75.9793 52.5033 75.9793 54.657V54.7059C75.9793 56.9819 77.57 58.6216 79.8216 58.6216C80.6047 58.6461 81.3878 58.4503 82.0731 58.0343V56.3211ZM48.4223 55.5136C48.4223 57.496 47.3945 58.4259 45.8282 58.4259C44.2619 58.4259 43.234 57.447 43.234 55.4157V47.5598H39.2449V55.4892C39.2449 59.8943 41.7901 61.9501 45.7792 61.9501C49.7684 61.9501 52.387 59.9433 52.387 55.3913V47.5598H48.4223V55.5136ZM69.0776 52.43V52.3811C69.0776 50.9861 68.6615 49.9093 67.8294 49.1016C66.875 48.1227 65.3821 47.5598 63.2285 47.5598H56.5473V61.6809H60.463V57.3981H62.1761L65.015 61.6809H69.5425L66.1652 56.7618C67.9273 56.0276 69.0776 54.5836 69.0776 52.43ZM65.1374 52.6747C65.1374 53.7026 64.3787 54.3389 63.0327 54.3389H60.4385V50.9616H63.0082C64.3053 50.9616 65.1374 51.5245 65.1374 52.6258V52.6747ZM93.6731 56.1255H100.452V53.0418H93.6731V50.8882H101.137V47.5598H89.7818V61.6809H101.26V58.3525H93.6731V56.1255ZM108.798 47.5598L114.598 55.0242V47.5598H118.465V61.6809H115.039L109.018 53.9473V61.6809H105.151V47.5598H108.798ZM121.499 51.0106H125.733V61.6809H129.649V51.0106H133.883V47.5598H121.499V51.0106ZM147.979 54.6325C147.979 56.7371 149.374 58.4013 151.357 58.4013C152.825 58.4013 153.682 57.7161 154.538 56.7127L157.475 58.8174C156.153 60.6529 154.367 61.9989 151.234 61.9989C147.27 62.0723 144.015 58.9153 143.941 54.9506V54.7059V54.6569C143.941 50.5454 147.098 47.315 151.381 47.315C154.269 47.315 156.129 48.5386 157.377 50.2517L154.44 52.5278C153.633 51.4999 152.703 50.8636 151.357 50.8636C149.374 50.8636 147.979 52.5278 147.979 54.5835V54.6325ZM165.38 47.4616L159.359 61.6806H163.471L164.474 59.1598H169.932L170.96 61.6806H175.145L169.124 47.4616H165.38ZM165.649 56.1252L167.24 52.1115L168.806 56.1252H165.649ZM190.538 52.3811V52.43C190.538 54.5836 189.388 56.0276 187.626 56.7618L191.003 61.6809H186.476L183.637 57.3981H181.924V61.6809H178.008V47.5598H184.689C186.843 47.5598 188.336 48.1227 189.29 49.1016C190.122 49.9093 190.538 50.9861 190.538 52.3811ZM184.518 54.3389C185.864 54.3389 186.622 53.7026 186.622 52.6747V52.6258C186.622 51.5245 185.815 50.9616 184.493 50.9616H181.948V54.3389H184.518ZM198.1 56.1255H204.879V53.0418H198.1V50.8882H205.565V47.5598H194.209V61.6809H205.662V58.3525H198.1V56.1255ZM58.1379 26.3902C58.1379 26.3658 58.1379 26.3413 58.1134 26.3413L52.7293 20.2474L52.7049 20.223L52.6804 20.2474V23.8695C52.6804 23.8799 52.6804 23.8859 52.6785 23.8912C52.676 23.8984 52.67 23.9044 52.6559 23.9184L52.6559 23.9184C52.6314 23.9429 52.6314 23.9429 52.607 23.9429H47.8102C47.3452 25.3134 47.2963 26.8063 47.6389 28.2012C47.6878 28.397 47.7368 28.5928 47.8102 28.7886H52.6559C52.6804 28.7886 52.6804 28.7886 52.7049 28.8131C52.7049 28.8131 52.7293 28.8376 52.7293 28.862V32.3862V32.4106C52.7293 32.4351 52.7538 32.4351 52.7783 32.4106L58.1379 26.4147V26.3902ZM57.8442 23.9919H61.5396C61.5504 23.9919 61.5658 24.0013 61.5798 24.0098C61.5976 24.0207 61.6131 24.0301 61.6131 24.0164V28.6663C61.6131 28.7152 61.5886 28.7397 61.5396 28.7397H57.8687C57.8197 28.7397 57.7952 28.7642 57.7952 28.8131V32.3617C57.7952 32.4107 57.7708 32.4352 57.7218 32.4352H53.6593C53.6103 32.4352 53.6103 32.4107 53.6348 32.3862L59.1657 26.4148C59.1902 26.3903 59.1902 26.3413 59.1657 26.3169L53.6837 20.223C53.6593 20.1986 53.6837 20.1741 53.7082 20.1741H57.6973C57.7463 20.1741 57.7708 20.1986 57.7708 20.2475V23.9185C57.7708 23.9674 57.7952 23.9919 57.8442 23.9919ZM96.659 34.0504V25.9742H88.2402V28.2747H94.2361V32.9736C92.6454 34.1972 90.6875 34.858 88.6807 34.8825C84.0798 34.8825 81.0206 31.652 81.0206 26.8063V26.7574C81.0206 22.3032 84.2511 18.8036 88.387 18.8036C91.3483 18.8036 92.988 19.8804 94.3096 21.0306L94.4075 21.1285L96.0227 19.2196L95.9003 19.0973C93.6488 17.2128 91.4951 16.4541 88.4605 16.4541C82.8316 16.4541 78.4264 21.0062 78.4264 26.8063V26.8553C78.4264 32.9246 82.6114 37.134 88.6073 37.134C91.5686 37.134 94.4075 36.0572 96.6345 34.0749L96.659 34.0504ZM115.185 29.3513V29.4002C115.185 33.683 111.734 37.1582 107.452 37.1582C103.193 37.1827 99.7181 33.732 99.6936 29.4492V29.4002V29.2289C99.7426 24.995 103.218 21.5932 107.452 21.6422H107.623C111.832 21.6911 115.234 25.1419 115.185 29.3513ZM102.214 29.4002C102.214 32.5083 104.515 34.9312 107.452 34.9312C110.413 34.9312 112.664 32.5817 112.689 29.4492V29.4002C112.689 26.2921 110.364 23.8448 107.403 23.8448C104.441 23.8448 102.214 26.2187 102.214 29.3513V29.4002ZM130.946 24.7509H122.919V16.9439H118.587V36.6938H122.919V28.7645H130.946V36.6938H135.278V16.9439H130.946V24.7509ZM149.741 32.0191L152.189 34.1973C150.769 35.9593 148.762 37.0117 146.021 37.0117C141.469 37.0117 138.117 33.8302 138.117 29.2047V29.1558C138.117 24.824 141.176 21.2754 145.581 21.2754C150.647 21.2754 152.947 25.1911 152.947 29.4739C152.947 29.8166 152.923 30.2081 152.898 30.5997H142.375C142.791 32.5576 144.161 33.561 146.07 33.561C147.514 33.561 148.542 33.1204 149.741 32.0191ZM148.787 27.9321C148.542 26.0232 147.416 24.7261 145.605 24.7261C143.794 24.7261 142.669 25.9987 142.326 27.9321H148.787ZM160.045 36.9627C162.125 36.9627 163.569 36.2041 164.621 35.0538V36.6935H168.782V27.9076C168.782 25.8764 168.268 24.2122 167.142 23.0864C166.065 22.0096 164.376 21.3978 162.027 21.3978C159.996 21.3488 157.989 21.7649 156.153 22.6214L157.23 25.9008C158.552 25.3624 159.971 25.0932 161.415 25.0932C163.569 25.0932 164.646 26.0722 164.646 27.8587V28.1034C163.471 27.6874 162.198 27.4671 160.95 27.4916C157.377 27.4916 154.856 29.0089 154.856 32.3128V32.3373C154.856 35.323 157.206 36.9627 160.045 36.9627ZM158.992 32.117C158.992 30.771 160.118 30.0368 161.954 30.0368C162.883 30.0368 163.838 30.2326 164.695 30.5997V31.3584V31.3828C164.695 32.9247 163.348 34.0259 161.342 34.0259C159.971 34.0259 158.992 33.3407 158.992 32.1905V32.117ZM172.085 16.087H176.368V36.669H172.085V16.087ZM180.945 32.3861C180.945 35.8857 182.731 36.9381 185.35 36.9381C186.549 36.9626 187.699 36.6689 188.727 36.0571V32.6063C188.091 32.9734 187.357 33.1447 186.622 33.1447C185.668 33.1447 185.227 32.6553 185.227 31.6763V25.2154H188.776V21.5444H185.227V17.7021H180.945V21.5689H179.134V25.2399H180.945V32.3861ZM196.216 23.6982C197.195 22.4256 198.467 21.2754 200.645 21.2754C203.9 21.2754 205.785 23.429 205.785 26.8797V36.669H201.502V28.2258C201.502 26.1945 200.548 25.1421 198.908 25.1421C197.268 25.1421 196.216 26.1945 196.216 28.2258V36.669H191.933V16.087H196.216V23.6982ZM209.04 33.9036C208.281 33.9036 207.67 34.5399 207.67 35.2741C207.67 36.0083 208.257 36.6446 209.04 36.6446C209.799 36.6446 210.411 36.0083 210.411 35.2741C210.386 34.5155 209.799 33.9036 209.04 33.9036ZM210.239 35.2741C210.239 35.9349 209.725 36.4978 209.04 36.4978C208.355 36.4978 207.841 35.9594 207.841 35.2741C207.841 34.6133 208.355 34.0505 209.04 34.0505C209.725 34.0505 210.239 34.5889 210.239 35.2741ZM209.138 34.5396C209.456 34.5396 209.701 34.6865 209.701 35.0046C209.701 35.2249 209.578 35.3717 209.383 35.4207L209.75 35.9346H209.334L209.04 35.4941H208.82V35.9591H208.477V34.5396H209.138ZM208.82 35.2249H209.113C209.26 35.2249 209.358 35.1515 209.358 35.0291C209.358 34.9067 209.26 34.8333 209.113 34.8333H208.82V35.2249Z" fill="white"/>
</svg>