<?xml version="1.0" encoding="utf-8"?>
<svg xmlns="http://www.w3.org/2000/svg" width="250" height="75" viewBox="0 0 250 75" fill="none">
<path d="M91.3243 63.0754H92.4097L90.2721 53.1982H88.9547L86.8171 63.0673H87.8942L88.2422 61.4523H90.9763L91.3243 63.0754V63.0754ZM88.441 60.4491L89.5844 54.9844L89.6175 54.7153L89.6424 54.9844L90.7857 60.4491H88.441V60.4491ZM101.118 59.7395C101.234 59.8537 101.283 60.0087 101.283 60.2044V61.7133C101.283 61.9254 101.151 62.0722 100.935 62.0722H99.1456C98.9302 62.0722 98.7894 61.9254 98.7894 61.7133V60.2452H97.7206V61.6155C97.7206 62.4637 98.3668 63.0999 99.2119 63.0999H100.869C101.714 63.0999 102.36 62.4637 102.36 61.6155V60.3594C102.36 59.7885 102.195 59.3317 101.83 59.0055L98.9634 56.1834C98.907 56.1231 98.8633 56.0524 98.8349 55.9754C98.8064 55.8984 98.7938 55.8167 98.7977 55.7348V54.5522C98.7977 54.3401 98.9302 54.1933 99.1456 54.1933H100.935C101.151 54.1933 101.292 54.3401 101.292 54.5522V56.0203H102.36V54.65C102.36 53.8018 101.714 53.1656 100.869 53.1656H99.2119C98.3668 53.1656 97.7206 53.8018 97.7206 54.65V55.5798C97.7206 56.1508 97.8863 56.5912 98.2508 56.9175L101.118 59.7395ZM108.607 63.0754H109.685L107.547 53.1982H106.238L104.092 63.0673H105.177L105.525 61.4523H108.259L108.607 63.0754V63.0754ZM105.724 60.4491L106.868 54.9844L106.892 54.7153L106.917 54.9844L108.061 60.4491H105.724ZM114.565 63.0999C115.418 63.0999 116.056 62.4637 116.056 61.6155V53.1982H114.987V61.7133C114.987 61.9254 114.846 62.0722 114.631 62.0722H112.85C112.634 62.0722 112.493 61.9254 112.493 61.7133V53.1982H111.416V61.6155C111.416 62.4637 112.062 63.0999 112.916 63.0999H114.565V63.0999ZM121.475 63.0999C122.378 63.0999 122.974 62.48 122.974 61.6155V60.4165H121.905V61.7215C121.905 61.9254 121.765 62.0722 121.549 62.0722H119.768C119.552 62.0722 119.412 61.9254 119.412 61.7133V54.5522C119.412 54.3401 119.552 54.1933 119.768 54.1933H121.549C121.765 54.1933 121.905 54.3401 121.905 54.5522V55.849H122.982V54.65C122.982 53.7529 122.378 53.1656 121.475 53.1656H119.834C118.964 53.1656 118.343 53.761 118.343 54.65V61.6155C118.343 62.48 118.964 63.0999 119.834 63.0999H121.475ZM129.18 63.0754V62.0722H126.321V58.3448H128.467V57.3416H126.321V54.1933H129.18V53.1982H125.253V63.0673H129.18V63.0754ZM138.609 63.0754V62.0722H135.75V53.1982H134.681V63.0673H138.609V63.0754ZM144.508 63.0754H145.585L143.456 53.1982H142.138L140.001 63.0673H141.078L141.426 61.4523H144.16L144.508 63.0754V63.0754ZM141.624 60.4491L142.768 54.9844L142.793 54.7153L142.826 54.9844L143.969 60.4491H141.624ZM150.473 63.0754C151.368 63.0754 151.965 62.48 151.965 61.591V59.0055C151.965 58.4182 151.724 58.0267 151.252 57.8636V57.8391C151.724 57.6678 151.973 57.2845 151.973 56.6973V54.6745C151.973 53.7855 151.368 53.1982 150.473 53.1982H147.325V63.0673H150.473V63.0754ZM150.896 57.0072C150.896 57.2193 150.755 57.3579 150.539 57.3579H148.402V54.1933H150.539C150.755 54.1933 150.896 54.3401 150.896 54.5522V56.999V57.0072ZM150.896 61.7133C150.896 61.9254 150.755 62.0722 150.539 62.0722H148.402V58.3448H150.539C150.755 58.3448 150.896 58.4835 150.896 58.6955V61.7133ZM157.648 59.7395C157.756 59.8537 157.814 60.0087 157.814 60.2044V61.7133C157.814 61.9254 157.673 62.0722 157.458 62.0722H155.676C155.461 62.0722 155.32 61.9254 155.32 61.7133V60.2452H154.243V61.6155C154.243 62.4637 154.889 63.0999 155.743 63.0999H157.383C158.245 63.0999 158.883 62.4637 158.883 61.6155V60.3594C158.883 59.7885 158.717 59.3317 158.361 59.0055L155.486 56.1834C155.429 56.1231 155.386 56.0524 155.357 55.9754C155.329 55.8984 155.316 55.8167 155.32 55.7348V54.5522C155.32 54.3401 155.461 54.1933 155.676 54.1933H157.458C157.673 54.1933 157.814 54.3401 157.814 54.5522V56.0203H158.891V54.65C158.891 53.8018 158.245 53.1656 157.391 53.1656H155.743C154.889 53.1656 154.251 53.8018 154.251 54.65V55.5798C154.251 56.1508 154.417 56.5912 154.773 56.9175L157.648 59.7395V59.7395ZM167.881 63.0999C168.784 63.0999 169.38 62.48 169.38 61.6155V60.4165H168.311V61.7215C168.311 61.9254 168.171 62.0722 167.955 62.0722H166.174C165.958 62.0722 165.818 61.9254 165.818 61.7133V54.5522C165.818 54.3401 165.958 54.1933 166.174 54.1933H167.955C168.171 54.1933 168.311 54.3401 168.311 54.5522V55.849H169.389V54.65C169.389 53.7529 168.784 53.1656 167.881 53.1656H166.24C165.37 53.1656 164.749 53.761 164.749 54.65V61.6155C164.749 62.48 165.37 63.0999 166.24 63.0999H167.881V63.0999ZM174.799 63.0999C175.702 63.0999 176.298 62.48 176.298 61.6155V54.65C176.298 53.7529 175.702 53.1656 174.807 53.1656H173.158C172.288 53.1656 171.667 53.761 171.667 54.65V61.6155C171.667 62.48 172.288 63.0999 173.158 63.0999H174.799V63.0999ZM174.873 54.1933C175.089 54.1933 175.23 54.3401 175.23 54.5522V61.7133C175.23 61.9254 175.089 62.0722 174.873 62.0722H173.084C172.877 62.0722 172.728 61.9254 172.728 61.7133V54.5522C172.728 54.3401 172.877 54.1933 173.084 54.1933H174.873ZM184.899 63.0754V53.1982H183.457L181.717 59.4296L180.019 53.1982H178.577V63.0673H179.654V55.4901L179.687 55.7185L181.485 62.3658H181.949L183.788 55.7185L183.83 55.4901V63.0754H184.907H184.899ZM190.317 59.2583C191.22 59.2583 191.817 58.6711 191.817 57.782V54.6827C191.817 53.7855 191.22 53.1982 190.326 53.1982H187.177V63.0673H188.254V59.2665H190.326L190.317 59.2583ZM190.392 54.2014C190.607 54.2014 190.748 54.3401 190.748 54.5522V57.9044C190.748 58.1164 190.607 58.2633 190.392 58.2633H188.254V54.1933H190.392V54.2014ZM197.426 63.0754H198.503L196.366 53.1982H195.056L192.911 63.0673H193.996L194.336 61.4523H197.086L197.434 63.0754H197.426ZM194.543 60.4491L195.686 54.9844L195.711 54.7153L195.736 54.9844L196.879 60.4491H194.543ZM204.883 63.0754V53.1982H203.814V59.9108L203.773 59.7314L201.436 53.1982H200.243V63.0673H201.32V55.7022L201.362 55.8735L203.988 63.0754H204.883V63.0754ZM211.892 53.1982H210.774L209.249 57.9778L209.216 58.1164L209.191 57.9778L207.675 53.1982H206.548L208.678 59.2583V63.0754H209.73V59.2583L211.884 53.1982H211.892ZM151.202 32.6445H154.599C154.657 32.6445 154.707 32.6282 154.74 32.5956C154.773 32.5548 154.798 32.514 154.798 32.4569V29.9529C154.798 29.9203 154.798 29.8958 154.782 29.8714C154.766 29.8371 154.74 29.808 154.708 29.7878C154.675 29.7675 154.638 29.7569 154.599 29.7572H151.202C151.152 29.7552 151.105 29.7348 151.07 29.7C151.034 29.6653 151.014 29.6187 151.012 29.5696V24.7982C151.012 24.7677 151.004 24.7376 150.99 24.7106C150.975 24.6836 150.954 24.6605 150.929 24.6432C150.905 24.6261 150.878 24.6143 150.85 24.6087C150.821 24.6031 150.792 24.6037 150.763 24.6106L147.515 25.4017C147.477 25.4112 147.442 25.4317 147.415 25.4608C147.389 25.4899 147.372 25.5261 147.366 25.5649L146.935 29.5859V29.749H144.806C144.768 29.7487 144.73 29.7594 144.698 29.7796C144.665 29.7999 144.64 29.8289 144.624 29.8632C144.612 29.8887 144.606 29.9167 144.607 29.9448V32.4487C144.607 32.4741 144.612 32.4992 144.622 32.5225C144.632 32.5458 144.647 32.5668 144.666 32.5844C144.684 32.6019 144.706 32.6155 144.731 32.6245C144.755 32.6334 144.78 32.6374 144.806 32.6363H146.736C146.786 32.6363 146.836 32.6608 146.869 32.6934C146.91 32.7342 146.927 32.775 146.927 32.8321V42.4972C147.06 43.8349 147.772 46.0289 151.003 46.2246L151.467 46.241C152.959 46.241 153.978 46.0534 154.674 45.7842C154.709 45.7694 154.739 45.7443 154.76 45.7122C154.781 45.6802 154.791 45.6427 154.79 45.6048V43.1987C154.79 43.1742 154.79 43.1416 154.773 43.1171C154.758 43.0875 154.735 43.0622 154.707 43.0437C154.682 43.0268 154.653 43.0158 154.623 43.0115C154.593 43.0073 154.562 43.0099 154.533 43.0192C153.978 43.215 153.398 43.3047 152.818 43.2965C151.277 43.2965 151.037 41.7876 150.995 41.1188V32.8402C150.995 32.8138 151.001 32.7877 151.011 32.7634C151.022 32.7391 151.037 32.7171 151.056 32.6989C151.076 32.6806 151.099 32.6663 151.124 32.657C151.149 32.6476 151.175 32.6434 151.202 32.6445V32.6445ZM138.037 37.5545C138.011 37.522 137.996 37.4819 137.995 37.4404C137.995 37.3996 138.012 37.3588 138.037 37.3262L141.392 32.8239L143.323 30.2302C143.342 30.2008 143.353 30.1668 143.354 30.1317C143.356 30.0967 143.348 30.062 143.331 30.0311C143.314 30.0003 143.289 29.9745 143.258 29.9564C143.228 29.9384 143.193 29.9287 143.157 29.9285H139.363C139.332 29.9284 139.301 29.9358 139.274 29.95C139.246 29.9643 139.223 29.9848 139.205 30.01L135.808 34.5694L133.43 37.7666C133.407 37.7986 133.394 37.8372 133.394 37.8767C133.394 37.9163 133.407 37.9548 133.43 37.9868L135.485 40.7436L139.52 46.1594C139.538 46.1857 139.563 46.2071 139.592 46.2213C139.621 46.2356 139.653 46.2424 139.686 46.241H144.135C144.168 46.241 144.201 46.2246 144.234 46.2083C144.265 46.19 144.29 46.1634 144.306 46.1316C144.322 46.0998 144.329 46.0642 144.325 46.0289C144.324 45.9939 144.312 45.9601 144.292 45.931L138.037 37.5545V37.5545ZM128.65 32.0735V46.0615C128.65 46.1104 128.675 46.1594 128.716 46.192C128.749 46.2328 128.799 46.2491 128.848 46.2491H132.544C132.594 46.2491 132.643 46.2293 132.678 46.1942C132.714 46.159 132.734 46.1113 132.734 46.0615V22.4818C132.734 22.4321 132.714 22.3843 132.678 22.3492C132.643 22.314 132.594 22.2942 132.544 22.2942H128.848C128.823 22.2942 128.797 22.2993 128.774 22.3092C128.75 22.3192 128.729 22.3337 128.711 22.352C128.693 22.3703 128.679 22.392 128.67 22.4157C128.661 22.4394 128.657 22.4646 128.658 22.49V32.0654L128.65 32.0735ZM126.462 42.6848V45.2133C126.463 45.2501 126.454 45.2865 126.435 45.3183C126.416 45.35 126.388 45.3758 126.355 45.3927C125.07 46.0207 123.529 46.241 121.881 46.241C117.398 46.241 113.761 42.4565 113.761 37.7829C113.761 33.1094 117.398 29.3167 121.881 29.3167C123.521 29.3167 125.062 29.4146 126.338 29.9203C126.371 29.9366 126.404 29.9611 126.421 29.9856C126.446 30.0182 126.462 30.059 126.462 30.0997V32.5058C126.461 32.5524 126.442 32.5968 126.41 32.6312C126.379 32.6656 126.335 32.6876 126.288 32.6934C126.255 32.6934 126.222 32.6934 126.189 32.6771C125.36 32.3346 124.358 32.2693 123.272 32.2693C120.414 32.2693 118.094 34.6917 118.094 37.6769C118.094 40.6539 120.414 43.0763 123.281 43.0763C124.358 43.0763 125.352 42.9295 126.181 42.5054C126.211 42.4891 126.245 42.4811 126.279 42.4823C126.314 42.4836 126.347 42.4939 126.376 42.5123C126.405 42.5307 126.428 42.5565 126.443 42.5868C126.458 42.6172 126.465 42.6511 126.462 42.6848V42.6848ZM195.62 42.6848V45.2133C195.62 45.254 195.612 45.2948 195.587 45.3193C195.568 45.3538 195.539 45.3821 195.504 45.4009C194.228 46.0207 192.687 46.241 191.03 46.241C186.556 46.241 182.927 42.4565 182.927 37.7829C182.927 33.1094 186.556 29.3167 191.038 29.3167C192.67 29.3167 194.22 29.4146 195.496 29.9203C195.533 29.9338 195.565 29.9584 195.587 29.9905C195.609 30.0227 195.621 30.0608 195.62 30.0997V32.5058C195.621 32.5376 195.613 32.5691 195.599 32.5975C195.584 32.6259 195.563 32.6504 195.537 32.669C195.51 32.6865 195.48 32.6972 195.448 32.7001C195.416 32.7029 195.384 32.6978 195.355 32.6853C194.526 32.3345 193.515 32.2693 192.438 32.2693C189.572 32.2693 187.252 34.6917 187.252 37.6769C187.252 40.6539 189.572 43.0763 192.438 43.0763C193.515 43.0763 194.51 42.9295 195.338 42.5054C195.382 42.4851 195.433 42.4823 195.479 42.4974C195.525 42.5126 195.564 42.5446 195.587 42.5869C195.612 42.6196 195.62 42.6522 195.62 42.6848V42.6848ZM108.077 29.4146C107.315 29.1699 106.511 29.0476 105.708 29.0557C102.783 29.0557 100.869 29.7082 99.8499 30.2139C99.8185 30.2288 99.7919 30.2519 99.7729 30.2807C99.7539 30.3094 99.7433 30.3428 99.7422 30.3771V33.2644C99.7424 33.2969 99.7509 33.3288 99.7668 33.3573C99.7827 33.3858 99.8056 33.4099 99.8333 33.4275C99.8623 33.444 99.8951 33.4526 99.9286 33.4526C99.962 33.4526 99.9949 33.444 100.024 33.4275C101.461 32.738 103.04 32.3809 104.639 32.3835C108.019 32.3835 108.077 34.6835 108.077 34.6835V35.336C108.077 35.3625 108.071 35.3884 108.059 35.4123C108.048 35.4362 108.031 35.4575 108.011 35.4747C107.988 35.4937 107.962 35.5073 107.933 35.5144C107.904 35.5215 107.874 35.5218 107.845 35.5155C107.141 35.3768 106.428 35.3034 105.708 35.3034C101.432 35.3034 97.9608 37.7503 97.9608 40.7681C97.9608 44.6831 101.432 46.241 105.708 46.241C106.503 46.241 107.298 46.1839 108.077 46.0615C109.734 45.7924 111.143 45.2051 112.096 44.2508C112.114 44.2329 112.129 44.2113 112.139 44.1874C112.149 44.1636 112.154 44.138 112.154 44.1122V35.3034C112.154 33.0686 111.002 30.3607 108.077 29.4146V29.4146ZM106.089 43.166C103.86 43.166 102.054 42.0242 102.054 40.605C102.054 39.194 103.852 38.0521 106.089 38.0521C106.702 38.0439 107.307 38.0602 107.912 38.1173C107.959 38.1234 108.003 38.147 108.033 38.1833C108.064 38.2195 108.08 38.2659 108.077 38.3131V42.8561C108.078 42.9019 108.061 42.9462 108.03 42.9808C108 43.0154 107.958 43.0377 107.912 43.0437C107.307 43.1334 106.702 43.1742 106.089 43.166V43.166ZM177.342 29.4146C176.58 29.1699 175.777 29.0476 174.973 29.0557C172.048 29.0557 170.143 29.7082 169.115 30.2139C169.082 30.2271 169.053 30.2498 169.032 30.2792C169.016 30.3066 169.008 30.3374 169.007 30.3689V33.2644C169.007 33.297 169.016 33.3215 169.032 33.3541C169.049 33.3829 169.073 33.407 169.102 33.4242C169.131 33.4413 169.164 33.4509 169.198 33.452C169.223 33.452 169.256 33.452 169.289 33.4275C170.726 32.7375 172.305 32.3804 173.904 32.3835C177.284 32.3835 177.351 34.6835 177.351 34.6835V35.336C177.349 35.3631 177.342 35.3895 177.329 35.4134C177.316 35.4374 177.298 35.4583 177.276 35.4747C177.253 35.4932 177.227 35.5064 177.198 35.5135C177.169 35.5206 177.139 35.5212 177.11 35.5155C176.414 35.3768 175.702 35.3034 174.973 35.3034C170.698 35.3034 167.226 37.7503 167.226 40.7681C167.226 44.6831 170.698 46.241 174.973 46.241C175.768 46.241 176.564 46.1839 177.342 46.0615C178.983 45.7924 180.408 45.2051 181.361 44.2508C181.394 44.21 181.419 44.1693 181.419 44.1122V35.3034C181.419 33.0686 180.275 30.3607 177.342 29.4146V29.4146ZM175.354 43.166C173.125 43.166 171.319 42.0242 171.319 40.605C171.319 39.194 173.117 38.0521 175.362 38.0521C175.967 38.0439 176.572 38.0602 177.185 38.1173C177.231 38.1253 177.273 38.1496 177.302 38.1857C177.331 38.2218 177.345 38.2671 177.342 38.3131V42.8561C177.343 42.9019 177.326 42.9462 177.296 42.9808C177.265 43.0154 177.223 43.0377 177.177 43.0437C176.58 43.1334 175.967 43.1742 175.354 43.166V43.166ZM95.7072 36.6247C95.0689 35.8766 94.2787 35.2682 93.3873 34.8385C93.3444 34.8159 93.3118 34.7779 93.2964 34.7324C93.281 34.6869 93.2839 34.6373 93.3045 34.5938C93.3164 34.5622 93.3363 34.5341 93.3625 34.5123C93.9139 34.167 94.4108 33.7438 94.8373 33.2562C95.5599 32.4681 96.0127 31.4763 96.1316 30.4211C96.2506 29.3658 96.0296 28.3005 95.5001 27.3756C94.3733 25.3854 91.9457 24.007 89.137 24.007H80.8185C80.7928 24.007 80.7673 24.0121 80.7436 24.022C80.7199 24.032 80.6986 24.0465 80.6808 24.0648C80.6629 24.0831 80.6491 24.1048 80.64 24.1285C80.6309 24.1522 80.6268 24.1775 80.6279 24.2028V46.0615C80.6279 46.1113 80.648 46.159 80.6838 46.1942C80.7195 46.2293 80.768 46.2491 80.8185 46.2491H89.5761C92.4842 46.2491 95.0113 44.8789 96.2375 42.8887C96.8393 41.9255 97.1125 40.798 97.0171 39.671C96.9217 38.5441 96.4627 37.4767 95.7072 36.6247V36.6247ZM92.0534 30.3036C92.0534 31.9267 90.4709 33.248 88.5156 33.248H84.9032C84.8775 33.2492 84.8518 33.2451 84.8277 33.2362C84.8036 33.2272 84.7816 33.2136 84.763 33.1961C84.7445 33.1785 84.7297 33.1575 84.7196 33.1342C84.7095 33.1109 84.7043 33.0858 84.7043 33.0605V27.5387C84.7043 27.5133 84.7095 27.4883 84.7196 27.465C84.7297 27.4416 84.7445 27.4206 84.763 27.4031C84.7816 27.3855 84.8036 27.3719 84.8277 27.363C84.8518 27.354 84.8775 27.35 84.9032 27.3511H88.5239C90.4792 27.3592 92.0617 28.6806 92.0617 30.3036H92.0534ZM84.696 42.6767V36.8205C84.696 36.7951 84.7012 36.7701 84.7113 36.7468C84.7214 36.7235 84.7362 36.7024 84.7548 36.6849C84.7733 36.6673 84.7953 36.6537 84.8194 36.6448C84.8435 36.6358 84.8692 36.6318 84.8949 36.6329H89.0375V36.6655C91.1089 36.6655 92.8074 38.0521 92.8074 39.7567C92.8074 41.4614 91.1172 42.8479 89.0375 42.8479V42.8806H84.8949C84.8687 42.8811 84.8427 42.8763 84.8184 42.8665C84.7942 42.8567 84.7723 42.842 84.754 42.8235C84.7352 42.8055 84.7203 42.784 84.7104 42.7601C84.7004 42.7362 84.6955 42.7106 84.696 42.6848V42.6767ZM161.319 31.837C161.3 31.8552 161.286 31.8769 161.276 31.9007C161.266 31.9245 161.261 31.9499 161.261 31.9757V32.2856L161.194 31.9594L160.805 30.0834C160.797 30.0395 160.774 29.9998 160.739 29.9714C160.704 29.943 160.66 29.9278 160.614 29.9285H157.383C157.357 29.9273 157.33 29.9316 157.306 29.941C157.281 29.9504 157.259 29.9648 157.24 29.9832C157.221 30.0016 157.207 30.0237 157.197 30.0479C157.187 30.0722 157.183 30.0982 157.184 30.1242V46.0615C157.184 46.0868 157.189 46.1119 157.2 46.1352C157.21 46.1585 157.224 46.1796 157.243 46.1971C157.262 46.2147 157.284 46.2283 157.308 46.2372C157.332 46.2462 157.357 46.2502 157.383 46.2491H161.062C161.112 46.248 161.16 46.2275 161.194 46.192C161.215 46.1765 161.232 46.1571 161.244 46.1349C161.253 46.1087 161.256 46.0808 161.252 46.0534V35.4013C161.252 35.3768 161.252 35.3524 161.269 35.3197C162.737 33.9245 164.705 33.1565 166.746 33.1828C166.78 33.1703 166.81 33.1483 166.832 33.1193C166.854 33.0904 166.867 33.0558 166.87 33.0197V29.7409C166.87 29.7082 166.87 29.6838 166.853 29.6593C166.838 29.6222 166.812 29.5905 166.777 29.5687C166.743 29.5468 166.703 29.5357 166.663 29.537C164.674 29.6675 162.769 30.4912 161.319 31.8452V31.837ZM203.466 42.3749C202.223 41.8284 201.262 40.4419 200.939 38.7046V38.6312C200.947 38.6044 200.961 38.5796 200.979 38.5585C200.998 38.5374 201.021 38.5205 201.047 38.5088C201.073 38.4974 201.101 38.4918 201.13 38.4925H211.809C211.834 38.4925 211.859 38.4925 211.884 38.4762C211.906 38.4663 211.925 38.4525 211.942 38.4354C211.959 38.4188 211.973 38.3995 211.983 38.3783C211.995 38.3527 212.001 38.3248 212 38.2968V37.7911C212 37.1141 211.975 36.4861 211.917 35.9315C211.403 29.904 208.214 29.3249 204.361 29.3249C200.144 29.3249 196.722 33.1176 196.722 37.7911C196.722 42.4646 200.144 46.2491 204.361 46.2491C207.741 46.2491 209.63 45.9636 210.683 45.1154C210.703 45.0972 210.72 45.075 210.732 45.0501C210.746 45.025 210.755 44.9972 210.757 44.9686V42.2607C210.755 42.232 210.747 42.2041 210.732 42.1791C210.711 42.1374 210.674 42.105 210.63 42.0884C210.585 42.0718 210.536 42.0722 210.492 42.0894C205.446 43.8185 203.458 42.383 203.458 42.383L203.466 42.3749ZM204.626 32.147C206.308 32.147 207.725 33.6314 208.238 35.6868V35.7683L208.197 35.8499C208.179 35.8725 208.157 35.8908 208.131 35.9035C208.105 35.9162 208.077 35.923 208.048 35.9233H201.212C201.188 35.9233 201.163 35.9233 201.13 35.907C201.089 35.8878 201.056 35.8555 201.037 35.8155C201.017 35.7754 201.012 35.7301 201.022 35.6868C201.536 33.6314 202.952 32.147 204.626 32.147V32.147ZM61.7209 11.3078L60.1384 14.7823C60.1187 14.8266 60.0862 14.8642 60.045 14.8903C60.0037 14.9164 59.9554 14.9299 59.9064 14.9291H38.2568C38.1909 14.9291 38.1277 14.9033 38.0811 14.8575C38.0345 14.8116 38.0083 14.7493 38.0083 14.6844V11.2017C38.0083 11.1368 38.0345 11.0746 38.0811 11.0287C38.1277 10.9828 38.1909 10.957 38.2568 10.957H61.4972C61.5603 10.9569 61.6211 10.9804 61.6673 11.0228C61.7135 11.0653 61.7415 11.1234 61.7457 11.1854C61.7457 11.2262 61.7457 11.267 61.7209 11.2996V11.3078ZM58.183 19.0562L56.5923 22.5226C56.572 22.5641 56.5402 22.5991 56.5007 22.6236C56.4611 22.6481 56.4153 22.6612 56.3685 22.6612H38.2568C38.1923 22.6613 38.1303 22.6366 38.084 22.5925C38.0376 22.5483 38.0104 22.4882 38.0083 22.4247V18.9502C38.0064 18.8995 38.0206 18.8496 38.0488 18.8072C38.077 18.7649 38.1178 18.7322 38.1657 18.7136C38.1948 18.7026 38.2257 18.6971 38.2568 18.6973H57.951C57.9939 18.6964 58.0363 18.7065 58.074 18.7265C58.1118 18.7465 58.1436 18.7758 58.1665 18.8115C58.1908 18.8472 58.2052 18.8887 58.2081 18.9316C58.211 18.9746 58.2024 19.0176 58.183 19.0562V19.0562ZM54.5458 26.9759L52.9633 30.4505C52.9424 30.4932 52.9094 30.5291 52.8682 30.5537C52.827 30.5783 52.7795 30.5906 52.7313 30.5891H38.2568C38.1909 30.5891 38.1277 30.5633 38.0811 30.5174C38.0345 30.4716 38.0083 30.4093 38.0083 30.3444V26.878C38.0083 26.8131 38.0345 26.7509 38.0811 26.705C38.1277 26.6591 38.1909 26.6333 38.2568 26.6333H54.3304C54.3935 26.6332 54.4543 26.6567 54.5005 26.6991C54.5467 26.7416 54.5747 26.7997 54.5789 26.8617C54.5789 26.9025 54.5706 26.9433 54.5541 26.9759H54.5458ZM51.0079 34.7162L49.4172 38.1826C49.3975 38.2269 49.365 38.2644 49.3238 38.2906C49.2825 38.3167 49.2342 38.3302 49.1852 38.3294H38.2568C38.1909 38.3294 38.1277 38.3036 38.0811 38.2577C38.0345 38.2118 38.0083 38.1496 38.0083 38.0847V34.6183C38.0083 34.5534 38.0345 34.4912 38.0811 34.4453C38.1277 34.3994 38.1909 34.3736 38.2568 34.3736H50.776C50.8176 34.3729 50.8587 34.3825 50.8956 34.4016C50.9325 34.4206 50.9639 34.4484 50.987 34.4825C51.0101 34.5166 51.0241 34.5559 51.0277 34.5967C51.0314 34.6375 51.0246 34.6786 51.0079 34.7162V34.7162ZM47.3707 42.644L45.7799 46.1104C45.7609 46.1535 45.7296 46.1902 45.69 46.2162C45.6503 46.2422 45.6039 46.2565 45.5562 46.2573H38.2568C38.2235 46.2584 38.1903 46.2528 38.1592 46.241C38.1281 46.2292 38.0997 46.2114 38.0757 46.1885C38.0517 46.1657 38.0327 46.1384 38.0197 46.1081C38.0067 46.0779 38 46.0454 38 46.0126V42.5462C38 42.4813 38.0262 42.419 38.0728 42.3731C38.1194 42.3273 38.1826 42.3015 38.2486 42.3015H47.147C47.1877 42.3011 47.2279 42.3106 47.264 42.3291C47.3001 42.3476 47.3311 42.3745 47.3541 42.4075C47.3785 42.4433 47.3929 42.4847 47.3958 42.5277C47.3987 42.5706 47.39 42.6136 47.3707 42.6522V42.644Z" fill="white"/>
<path d="M50.3032 45.956L66.2773 11.0228C66.2949 10.9856 66.323 10.9543 66.3583 10.9326C66.3936 10.9109 66.4345 10.8997 66.4761 10.9004H73.9329C73.9886 10.9025 74.0413 10.9258 74.0799 10.9653C74.1185 11.0049 74.1401 11.0576 74.14 11.1125V46.0538C74.138 46.1094 74.1146 46.1622 74.0747 46.2015C74.0347 46.2409 73.9811 46.2639 73.9246 46.2659H50.502C50.4462 46.2682 50.3917 46.249 50.35 46.2125C50.3083 46.176 50.2826 46.125 50.2783 46.0702C50.2783 46.0294 50.2783 45.9967 50.3032 45.9641V45.956Z" fill="white"/>
</svg>