<?xml version="1.0" encoding="utf-8"?>
<svg xmlns="http://www.w3.org/2000/svg" width="250" height="75" viewBox="0 0 250 75" fill="none">
<path fill-rule="evenodd" clip-rule="evenodd" d="M50.7272 38.2369L58.6355 59.0752H56.5429L49.6788 40.9979L42.8147 59.0752H41.7749L41.7749 59.0752H39.6823L32.8177 40.9965L25.9531 59.0752H23.8606L31.7694 38.2356L24.3874 18.7945L9.09256 59.0752H7L22.9968 16.9238H25.7781L32.8177 35.4732L39.8574 16.9238H42.6386L49.6788 35.4746L56.719 16.9238H59.5003L75.4971 59.0752H73.4045L58.1096 18.7944L50.7272 38.2369ZM48.6305 38.2369L41.248 18.7944L33.8661 38.2356L41.2485 57.6883L48.6305 38.2369Z" fill="white"/>
<path d="M116.336 34.4483H113.196L107.908 42.1272L102.631 34.4483H99.415V43.3477H101.373V35.8976L106.534 43.3477H109.204L114.366 35.8976V43.3477H116.336V34.4483ZM127.333 34.194C124.015 34.194 122.349 34.9187 121.485 35.7832C120.697 36.5714 120.328 37.5504 120.328 38.898C120.328 40.2456 120.697 41.2245 121.498 42.0255C122.337 42.8645 124.002 43.6019 127.333 43.6019C130.664 43.6019 132.329 42.8645 133.181 42.0128C133.969 41.2245 134.338 40.2456 134.338 38.898C134.338 37.5504 133.957 36.5587 133.181 35.7832C132.329 34.9314 130.664 34.194 127.333 34.194ZM127.333 35.7451C129.736 35.7451 130.995 36.2409 131.592 36.8384C132.062 37.3088 132.355 37.8936 132.355 38.898C132.355 39.9023 132.088 40.4999 131.617 40.9703C131.02 41.5678 129.736 42.0509 127.333 42.0509C124.918 42.0509 123.646 41.5296 123.087 40.9703C122.578 40.4617 122.311 39.9023 122.311 38.898C122.311 37.8936 122.566 37.3088 123.061 36.813C123.646 36.2282 124.93 35.7451 127.333 35.7451ZM141.237 34.4483H138.338V43.3477H140.296V36.0375L148.432 43.3477H151.191V34.4483H149.233V41.6314L141.237 34.4483ZM162.196 34.194C158.878 34.194 157.212 34.9187 156.348 35.7832C155.56 36.5714 155.191 37.5504 155.191 38.898C155.191 40.2456 155.56 41.2245 156.361 42.0255C157.2 42.8645 158.865 43.6019 162.196 43.6019C165.527 43.6019 167.192 42.8645 168.044 42.0128C168.833 41.2245 169.201 40.2456 169.201 38.898C169.201 37.5504 168.82 36.5587 168.044 35.7832C167.192 34.9314 165.527 34.194 162.196 34.194ZM162.196 35.7451C164.599 35.7451 165.858 36.2409 166.455 36.8384C166.926 37.3088 167.218 37.8936 167.218 38.898C167.218 39.9023 166.951 40.4999 166.481 40.9703C165.883 41.5678 164.599 42.0509 162.196 42.0509C159.781 42.0509 158.509 41.5296 157.95 40.9703C157.441 40.4617 157.174 39.9023 157.174 38.898C157.174 37.8936 157.429 37.3088 157.924 36.813C158.509 36.2282 159.793 35.7451 162.196 35.7451ZM178.68 38.4149V39.9913H184.147C184.147 40.4363 184.02 40.7796 183.677 41.1228C183.168 41.6314 181.821 42.0128 179.685 42.0128C176.989 42.0128 175.909 41.5296 175.324 40.9448C174.879 40.4999 174.612 39.8642 174.612 38.898C174.612 37.9826 174.854 37.3342 175.324 36.8638C175.909 36.279 177.218 35.8341 179.685 35.8341C182.138 35.8341 184.262 36.368 185.546 37.0673V35.262C184.465 34.7153 182.38 34.2449 179.685 34.2449C176.303 34.2449 174.625 34.9823 173.786 35.8213C173.01 36.5969 172.629 37.6775 172.629 38.898C172.629 40.2075 173.061 41.2372 173.786 41.9619C174.625 42.801 176.074 43.5511 179.685 43.5511C182.85 43.5511 184.414 42.9281 185.215 42.1272C185.863 41.4788 186.169 40.6778 186.169 39.4319V38.4149H178.68ZM190.142 34.4483V43.3477H192.113V40.3982H195.634L200.338 43.3477H203.313V43.3095L198.533 40.3727C200.236 40.2583 200.974 39.8515 201.457 39.3684C201.991 38.8344 202.182 38.1479 202.182 37.3978C202.182 36.6477 201.991 35.923 201.508 35.4399C200.872 34.8043 200.084 34.4483 197.592 34.4483H190.142ZM192.113 36.0502H197.63C199.054 36.0502 199.575 36.2027 199.88 36.5079C200.109 36.7367 200.224 37.0418 200.224 37.4487C200.224 37.8809 200.109 38.1479 199.906 38.3513C199.601 38.6564 199.003 38.8471 197.617 38.8471H192.113V36.0502ZM211.355 34.3974L205.163 43.3477H207.337L208.761 41.25H216.529L217.953 43.3477H220.216L214.024 34.3974H211.355ZM212.639 35.5162L215.461 39.6735H209.829L212.639 35.5162ZM240.3 34.4483H237.16L231.871 42.1272L226.595 34.4483H223.379V43.3477H225.336V35.8976L230.498 43.3477H233.168L238.33 35.8976V43.3477H240.3V34.4483Z" fill="white"/>
</svg>