<?xml version="1.0" encoding="utf-8"?>
<svg xmlns="http://www.w3.org/2000/svg" width="250" height="75" viewBox="0 0 250 75" fill="none">
<path fill-rule="evenodd" clip-rule="evenodd" d="M170.216 24.7207V43.3118C170.216 44.6851 170.241 46.2365 170.342 47.2792H167.845L167.719 44.6088H167.656C166.799 46.3255 164.945 47.6353 162.462 47.6353C158.78 47.6353 155.93 44.4816 155.93 39.8148C155.905 34.7029 159.057 31.5493 162.764 31.5493C165.097 31.5493 166.673 32.6683 167.366 33.9018H167.429V24.7207H170.216ZM167.442 38.1617C167.442 37.8057 167.417 37.3352 167.316 36.9918C166.912 35.2116 165.399 33.7492 163.306 33.7492C160.432 33.7492 158.742 36.2924 158.742 39.7004C158.742 42.8158 160.255 45.3972 163.256 45.3972C165.122 45.3972 166.812 44.151 167.316 42.0656C167.417 41.6841 167.442 41.3026 167.442 40.8575V38.1617ZM120.601 45.3212C118.709 45.3212 116.919 44.6854 115.683 43.9225L114.965 46.2114C116.099 46.9744 118.344 47.5847 120.386 47.5847C125.405 47.5847 127.825 44.7236 127.825 41.4174C127.825 38.2765 125.997 36.5217 122.404 35.1229C119.466 33.9784 118.18 32.9993 118.18 30.9901C118.18 29.5405 119.289 27.7856 122.189 27.7856C124.118 27.7856 125.531 28.4214 126.224 28.8029L126.981 26.5395C126.035 26.0054 124.459 25.4967 122.29 25.4967C118.167 25.4967 115.419 27.9891 115.419 31.3207C115.419 34.3472 117.562 36.1529 121.029 37.3991C123.904 38.5054 125.039 39.6498 125.039 41.659C125.039 43.8207 123.4 45.3212 120.601 45.3212ZM72.814 30.2778C72.814 33.4314 72.9023 36.5087 73.0031 39.0901L73.3688 47.3047H78.034L76.8992 25.878H70.5949L68.3505 32.999C67.6192 35.3769 66.9006 38.2126 66.3332 40.6923H66.2071C65.7406 38.1745 65.1101 35.5041 64.4167 33.0245L62.3362 25.878H55.9311L54.5693 47.3047H59.0076L59.411 39.1664C59.5371 36.496 59.6632 33.1898 59.7641 30.2905H59.8271C60.3567 33.1262 61.0502 36.1399 61.7436 38.6577L64.0132 46.9487H67.7706L70.3553 38.5814C71.1749 36.0636 72.0575 33.0117 72.751 30.2778H72.814ZM94.6269 47.2918C94.4378 46.4398 94.3747 45.0029 94.3747 43.5405H94.3873V38.1107C94.3873 34.4485 92.786 31.3966 87.6417 31.3966C84.83 31.3966 82.7244 32.185 81.6526 32.7954L82.5352 35.8727C83.5439 35.2623 85.2209 34.7282 86.7969 34.7282C89.1548 34.7282 89.5961 35.9108 89.5961 36.7374V36.9281C84.1365 36.9281 80.5431 38.8355 80.5431 42.8793C80.5431 45.3589 82.3965 47.6478 85.5235 47.6478C87.3517 47.6478 88.9278 46.9866 89.9365 45.7404H90.0374L90.3147 47.2918H94.6269ZM85.2713 42.3833C85.2713 40.5522 87.2256 39.9418 89.7474 39.9418H89.76V41.6204C89.76 41.9129 89.7221 42.1926 89.6591 42.4469C89.3313 43.4388 88.3226 44.2272 87.1626 44.2272C86.0909 44.2272 85.2713 43.6295 85.2713 42.3833ZM109.757 46.8723C108.9 47.2792 107.299 47.6098 105.47 47.6098C100.49 47.6098 97.3001 44.5325 97.3001 39.6622C97.3001 35.1479 100.389 31.4221 106.126 31.4221C107.387 31.4221 108.774 31.651 109.783 32.0325L109.026 35.6184C108.459 35.3641 107.614 35.1352 106.353 35.1352C103.831 35.1352 102.192 36.9536 102.217 39.4587C102.217 42.3199 104.109 43.8077 106.441 43.8077C107.576 43.8077 108.459 43.6169 109.19 43.299L109.757 46.8723ZM134.76 28.2305V31.8927H138.732V34.029H134.76V42.32C134.76 44.2274 135.29 45.3083 136.841 45.3083C137.572 45.3083 138.102 45.2065 138.455 45.1175L138.581 47.2157C138.051 47.4446 137.194 47.5972 136.122 47.5972C134.836 47.5972 133.789 47.1903 133.121 46.4273C132.339 45.6007 132.049 44.2401 132.049 42.4217V34.029H129.679V31.8927H132.049V29.057L134.76 28.2305ZM150.067 45.3592L150.294 47.2921V47.2794H152.816C152.627 46.2367 152.564 44.9269 152.564 43.5917V37.844C152.564 34.7539 151.429 31.5495 146.764 31.5495C144.834 31.5495 143.006 32.0963 141.745 32.9228L142.376 34.7667C143.447 34.0673 144.935 33.6222 146.347 33.6222C149.462 33.6222 149.815 35.9111 149.815 37.1827V37.5006C143.914 37.4752 140.636 39.5098 140.636 43.2229C140.636 45.461 142.212 47.6482 145.301 47.6482C147.47 47.6482 149.109 46.5673 149.966 45.3592H150.067ZM143.435 42.8923C143.435 39.9167 146.864 39.3699 149.89 39.4335V42.1039C149.89 42.3837 149.84 42.7143 149.739 42.994C149.31 44.2911 148.05 45.5627 146.057 45.5627C144.633 45.5627 143.435 44.698 143.435 42.8923ZM176.141 29.2988C177.251 29.2988 177.932 28.5358 177.907 27.5821C177.907 26.5903 177.251 25.8273 176.217 25.8273C175.208 25.8273 174.477 26.5903 174.477 27.5821C174.477 28.5358 175.158 29.2988 176.141 29.2988ZM174.818 31.9056V47.2922H177.591V31.9056H174.818ZM194.966 43.0955C194.966 44.685 194.991 46.0838 195.092 47.2919H192.634L192.482 44.7741H192.419C191.688 46.0202 190.087 47.6352 187.376 47.6352C184.98 47.6352 182.105 46.3 182.105 40.8956V31.8926H184.879V40.4124C184.879 43.3371 185.762 45.3081 188.284 45.3081C190.15 45.3081 191.436 44.0111 191.94 42.7649C192.091 42.358 192.192 41.8493 192.192 41.3407V31.9053H194.966V43.0955ZM199.443 31.8927C199.544 33.1643 199.569 34.4741 199.569 36.0636V47.292H202.28V38.0092C202.28 37.526 202.355 37.0427 202.507 36.6358C202.935 35.237 204.196 33.8383 205.936 33.8383C208.042 33.8383 209.113 35.6185 209.113 38.06V47.2793H211.824V37.7676C211.824 37.2589 211.925 36.7503 212.051 36.3688C212.53 34.9954 213.753 33.8255 215.33 33.8255C217.561 33.8255 218.633 35.6058 218.633 38.556V47.2665H221.356V38.2126C221.356 32.8718 218.356 31.5366 216.338 31.5366C214.876 31.5366 213.867 31.9181 212.959 32.6175C212.329 33.1007 211.736 33.762 211.257 34.6267H211.194C210.538 32.821 208.962 31.5493 206.882 31.5493C204.36 31.5493 202.948 32.91 202.09 34.3723H201.99L201.864 31.8927H199.443Z" fill="white"/>
<path fill-rule="evenodd" clip-rule="evenodd" d="M67.9595 0H64.303V18.4384H67.9595V0ZM68.0858 56.5615H64.4293V75H68.0858V56.5615ZM58.5965 55.0369L62.0658 56.2015L56.2921 73.6959L52.8229 72.5313L58.5965 55.0369ZM56.4508 53.9477L53.492 51.7812L42.751 66.7016L45.7099 68.8681L56.4508 53.9477ZM49.7854 47.1201L51.9128 50.1193L37.0436 60.8468L34.9163 57.8476L49.7854 47.1201ZM48.7535 45.0046L47.6207 41.4984L30.2377 47.2106L31.3705 50.7169L48.7535 45.0046ZM47.2825 35.5791V39.2667H29L29 35.5791H47.2825ZM47.5596 33.3636L48.6873 29.8555L31.2952 24.1691L30.1675 27.6771L47.5596 33.3636ZM51.8505 24.7762L49.688 27.75L34.945 16.8455L37.1075 13.8717L51.8505 24.7762ZM56.3346 1.24476L52.8598 2.39237L58.5494 19.9144L62.0241 18.7668L56.3346 1.24476ZM42.8061 8.1448L45.7532 5.96206L56.5746 20.8234L53.6275 23.0062L42.8061 8.1448Z" fill="white"/>
</svg>